<?xml version="1.0" encoding="UTF-8" standalone="no"?>
<!DOCTYPE svg PUBLIC "-//W3C//DTD SVG 1.1//EN" "http://www.w3.org/Graphics/SVG/1.1/DTD/svg11.dtd">
<svg width="100%" height="100%" viewBox="0 0 1080 1080" version="1.1" xmlns="http://www.w3.org/2000/svg" xmlns:xlink="http://www.w3.org/1999/xlink" xml:space="preserve" xmlns:serif="http://www.serif.com/" style="fill-rule:evenodd;clip-rule:evenodd;stroke-linejoin:round;stroke-miterlimit:2;">
    <rect id="squircle-bold" x="-0" y="0" width="1080" height="1080" style="fill:none;"/>
    <path d="M984.75,317.63l0,444.75c0,122.73 -99.64,222.37 -222.37,222.37l-444.75,0c-122.73,0 -222.37,-99.64 -222.37,-222.37l0,-444.75c0,-122.73 99.64,-222.37 222.37,-222.37l444.75,0c122.73,0 222.37,99.64 222.37,222.37Zm-232.83,-45.65l-93.33,268.02l95.36,268.02l131.96,-377.52l-134,-158.53Zm11.36,61.29l87.65,103.7l-97.24,278.19l-62.36,-175.27l71.95,-206.63Zm-435.2,-61.29l-134,158.53l131.96,377.52l188.68,0l-186.65,-536.05Zm-11.36,61.29l154.55,443.88l-123.3,-0l-118.91,-340.17l87.66,-103.7Zm142.91,252.38l78.06,221.2l0.26,-0.7l0.67,1.88l191.72,0l-94.01,-266.87l28.5,-78.03l12.22,-33.04l-36.93,-42.57l-99.41,-115.54l-0.42,0.49l-1.45,-1.67l-2.25,5.99l-132.05,153.73l55.1,155.14Zm45.25,-224.56l-47.43,126.13l-17.82,-50.17l65.25,-75.96Zm49.79,399.86l64.71,-174.95l67.34,191.15l-126.29,-0l-5.75,-16.2Zm-16.13,-45.42l-49.79,-140.19l-15.22,-43.13l75.96,-202l67.25,77.51l24.88,28.92l-5.78,15.84l-97.3,263.06Z" style="fill:#0e2e3f;"/>
</svg>
