<?xml version="1.0" encoding="UTF-8" standalone="no"?><!DOCTYPE svg PUBLIC "-//W3C//DTD SVG 1.1//EN" "http://www.w3.org/Graphics/SVG/1.1/DTD/svg11.dtd"><svg width="100%" height="100%" viewBox="0 0 1052 700" version="1.1" xmlns="http://www.w3.org/2000/svg" xmlns:xlink="http://www.w3.org/1999/xlink" xml:space="preserve" xmlns:serif="http://www.serif.com/" style="fill-rule:evenodd;clip-rule:evenodd;stroke-linejoin:round;stroke-miterlimit:2;"><g id="Background"><path d="M362.89,0l17.452,0c-3.557,12.62 -3.101,12.678 -7.377,25.079c-4.989,14.472 -4.598,22.645 -5.276,27.731c-1.544,11.576 -2.346,11.414 -2.402,12.425c-0.296,5.287 -0.401,5.202 -2.006,10.335c-5.597,17.897 -0.294,38.15 -1.781,49.109c-1.749,12.889 1.12,23.003 0.621,26.77c-2.367,17.885 1.743,23.624 0.58,37.94c-1.184,14.575 0.853,21.174 0.696,29.789c-0.419,22.904 2.16,23.639 1.072,29.701c-1.55,8.637 -0.454,8.671 -0.977,17.471c-0.105,1.774 -1.913,5.052 -2.054,6.144c-0.798,6.175 -2.583,5.569 -3.77,10.3c-3.599,14.34 -5.457,13.611 -7.401,20.471c-3.85,13.587 -8.868,14.248 -12.792,20.765c-7.781,12.926 -7.932,13.936 -8.137,15.307c-0.178,1.189 2.851,8.492 14.136,-5.115c2.423,-2.921 9.038,-4.224 13.863,-10.649c7.709,-10.266 7.927,-10.101 8.469,-11.076c3.636,-6.542 3.859,-6.285 8.233,-12.34c9.329,-12.915 3.975,-14.788 9.68,-37.794c2.665,-10.745 3.333,-35.499 2.945,-40.119c-2.812,-33.456 1.226,-34.075 -1.488,-55.396c-1.236,-9.715 0.736,-28.08 0.543,-28.841c-3.439,-13.535 0.093,-15.221 -1.874,-34.858c-0.37,-3.698 5.12,-13.185 7.275,-40.98c1.048,-13.515 3.075,-13.235 3.234,-26.771c0.13,-11.058 8.422,-9.939 6.52,-35.398l16.425,0c-0.099,1.308 0.046,1.229 -0.19,2.519c-2.263,12.327 -1.353,12.392 -1.619,13.442c-4.197,16.558 -0.996,17.012 -4.485,33.796c-3.829,18.418 -1.274,23.18 -2.77,28.822c-4.039,15.238 -0.401,17.68 -3.5,31.725c-0.591,2.681 1.329,15.075 0.627,18.594c-2.144,10.754 0.713,10.846 -0.124,18.444c-2.178,19.771 1.122,20.514 1.048,28.71c-0.069,7.636 0.241,12.894 -0.214,15.412c-1.831,10.114 0.81,10.075 0.581,21.523c-0.655,32.687 3.027,35.053 -0.071,45.052c-2.038,6.579 0.25,6.893 -1.795,13.423c-0.625,1.997 -2.165,10.003 2.16,8.082c8.241,-3.66 7.272,-9.151 9.744,-12.888c5.017,-7.583 4.124,-8.02 7.462,-13.801c11.527,-19.961 9.542,-21.337 12.131,-32.561c2.699,-11.702 4.48,-11.12 5.844,-17.505c4.328,-20.268 4.58,-20.255 3.667,-32.88c-1.61,-22.258 1.73,-23.499 1.211,-32.861c-0.998,-18.017 -0.29,-18.039 -0.614,-19.571c-1.701,-8.046 -0.749,-8.098 -1.789,-16.3c-3.984,-31.429 -1.651,-81.813 -3.512,-89.429c-1.421,-5.814 -0.008,-5.811 -0.179,-11.749l20.531,0c0.688,5.904 0.103,5.891 1.421,11.71c1.309,5.781 -1.031,5.791 -0.684,18.57c0.759,27.92 5.045,27.554 5.005,55.441c-0.027,19.221 4.579,22.061 2.799,30.895c-1.513,7.512 0.02,24.5 0.212,26.621c0.11,1.222 -1.022,4.02 -0.757,6.149c0.365,2.944 2.814,22.674 -1.466,37.05c-3.86,12.962 -5.573,35.13 -19.462,63.73c-6.574,13.537 -0.046,15.71 2.563,13.042c18.846,-19.266 34.781,-21.095 53.305,-62.603c3.648,-8.175 1.412,-8.64 3.395,-17.325c3.888,-17.03 -0.909,-25.951 0.537,-35.009c1.8,-11.276 0.065,-11.288 1.007,-22.565c1.734,-20.759 0.724,-20.808 1.021,-22.593c3.284,-19.76 1.386,-52.122 2.215,-56.444c1.473,-7.673 1.856,-7.567 2.103,-15.361c0.461,-14.547 3.971,-16.418 5.3,-31.307l37.983,0c-4.035,12.202 -1.839,12.636 -5.502,25.066c-3.64,12.349 -4.285,27.496 -4.388,29.912c-0.039,0.915 -1.386,0.668 -2.073,11.262c-0.043,0.667 -1.147,0.369 -1.764,8.162c-0.325,4.106 -4.181,18.131 -2.85,31.862c0.347,3.582 -2.599,6.544 -2.645,13.342c-0.022,3.217 -1.925,12.988 -1.87,19.532c0.205,24.24 -2.244,24.029 -3.022,48.186c-0.046,1.426 -0.945,1.189 -3.419,17.5c-1.909,12.587 -8.507,10.986 -7.709,23.653c0.48,7.616 18.737,-16.915 22.872,-27.804c11.845,-31.192 6.527,-32.298 7.891,-38.041c0.709,-2.984 4.442,-5.942 3.768,-10.239c-2.203,-14.051 4.138,-18.579 5.25,-29.668c0.468,-4.666 5.214,-14.273 5.333,-16.512c0.255,-4.801 -0.228,-4.877 2.035,-9.378c0.874,-1.739 -0.888,-2.263 6.638,-23.409c6.802,-19.112 0.118,-24.424 12.115,-44.248c3.455,-5.71 6.494,-20.458 8.35,-29.178l28.744,0c-9.007,21.34 -11.893,24.766 -14.655,35.345c-2.051,7.857 -3.017,7.481 -4.824,15.476c-1.732,7.663 -9.061,17.23 -12.147,35.961c-1.311,7.958 -10.924,25.612 -12.078,35.914c-1.718,15.336 -5.305,14.62 -7.353,33.907c-0.177,1.667 -2.363,1.146 -4.724,20.421c-1.825,14.897 7.531,3.986 9.413,1.963c1.957,-2.103 1.33,-2.539 21.4,-28.837c2.606,-3.414 1.982,-3.767 26.285,-46.812c6.334,-11.22 3.475,-13.082 12.811,-21.972c13.394,-12.754 12.925,-19.144 22.26,-30.175c6.207,-7.335 6.103,-7.33 11.333,-15.46c6.235,-9.693 10.762,-7.034 23.499,-23.639c4.975,-6.486 6.215,-5.305 10.905,-12.092l25.664,-0c-0.162,1.944 0.505,2.392 -5.24,8.625c-6.758,7.333 -5.214,8.436 -11.616,16.154c-15.104,18.208 -23.442,25.298 -36.834,52.571c-5.648,11.502 -9.237,9.482 -13.199,21.667c-4.079,12.547 -16.461,23.232 -21.038,35.075c-1.192,3.085 -3.557,17.62 -31.532,40.463c-0.054,0.044 -20.762,16.104 -10.875,15.222c16.449,-1.468 13.246,-8.667 38.731,-22.376c9.763,-5.252 25.929,-30.617 47.704,-52.692c11.943,-12.107 15.465,-21.603 25.066,-28.471c9.437,-6.751 5.988,-10.1 23.546,-25.635c4.45,-3.937 3.818,-6.864 11.953,-12.533c9.713,-6.769 9.738,-6.606 18.29,-14.65c1.101,-1.035 2.653,-0.771 4.928,-3.279c7.429,-8.188 9.913,-5.704 16.006,-14.937c4.969,-7.53 8.826,-4.138 14.943,-15.204l56.461,0c-1.21,6.57 -10.192,6.322 -14.204,9.962c-15.365,13.938 -24.571,14.808 -42.52,33.423c-3.25,3.371 -20.852,12.679 -37.147,30.591c-6.95,7.64 -23.046,18.761 -29.767,27.813c-4.14,5.576 -22.195,16.282 -17.925,23.822c-0.166,0.476 -0.792,0.693 -0.957,1.168c-0.826,2.375 8.567,12.662 10.108,-0.155c1.127,-0.313 2.254,-0.625 13.353,-5.963c0.662,-0.318 0.5,-0.595 8.034,-4.443c1.764,-0.901 6.162,-4.828 13.542,-7.827c7.943,-3.228 28.513,-14.213 43.175,-24.579c6.351,-4.49 7.048,-3.452 12.504,-9.131c7.574,-7.884 11.556,-6.335 22.35,-16.629c7.717,-7.36 9.229,-5.184 25.357,-16.843c11.68,-8.443 12.017,-7.708 15.498,-9.21c1.191,-0.514 0.228,-1.86 13.252,-9.332c2.668,-1.53 21.296,-12.217 31.048,-22.668l25.664,-0c-2.792,10.782 -28.737,39.209 -38.302,46.282c-7.055,5.218 -7.695,4.334 -12.371,9.329c-0.105,0.112 -16.11,12.8 -18.405,14.253c-8.006,5.067 -8.761,3.702 -18.47,11.382c-4.454,3.523 -5.179,2.426 -10.396,7.107c-2.852,2.559 -24.58,8.681 -43.452,20.382c-11.186,6.936 -19.709,7.35 -27.124,11.579c-1.312,0.748 -28.787,12.978 -33.703,13.042c-1.832,0.024 -3.857,0.05 -22.68,3.194c-6.272,1.048 -6.527,3.982 -11.275,5.117c-5.791,1.384 -20.927,6.631 -8.16,6.842c1.486,0.025 1.322,0.957 18.522,1.416c12.506,0.334 12.25,-1.561 24.645,-3.332c1.74,-0.249 1.443,-1.458 21.441,-4.813c12.983,-2.178 12.629,-4.305 25.744,-4.298c13.711,0.007 20.971,-6.153 29.827,-7.148c5.331,-0.599 5.264,-0.602 10.309,-2.199c2.725,-0.863 5.863,-0.153 31.474,-12.122c12.627,-5.901 45.298,-22.734 64.217,-40.203c9.98,-9.215 13.725,-6.373 24.013,-22.115c7.148,-10.938 14.007,-24.687 17.587,-11.054c5.217,19.868 8.424,18.4 24.081,43.93c4.916,8.016 7.389,5.876 12.605,13.797c7.795,11.837 15.137,9.782 38.934,11.013l-0,12.319c-10.007,1.379 -29.255,-0.041 -31.349,0.953c-1.024,0.486 -3.857,2.684 7.599,11.959c17.286,13.995 16.499,15.779 23.751,16.859l0,16.425c-3.698,-1.861 -3.671,-1.971 -6.138,-5.87c-5.838,-9.227 -59.664,-42.448 -70.292,-45.616c-5.701,-1.699 -6.424,4.223 -8.71,6.994c-4.467,5.415 -4.181,5.529 -8.112,11.418c-3.063,4.588 5.247,2.954 11.553,6.536c8.01,4.549 8.437,3.602 16.277,8.429c8.587,5.287 9.34,4.068 16.836,10.722c18.494,16.419 17.865,17.052 19.6,18.315c8.582,6.251 7.479,7.418 15.751,14.153c7.587,6.177 5.585,13.272 13.236,13.928l0,13.345c-6.478,-1.515 -6.098,-2.338 -6.663,-2.365c-2.937,-0.141 -1.146,1.529 -0.505,5.519c4.21,26.189 5.562,26.159 4.308,35.821c-0.472,3.633 -0.802,32.519 0.036,39.138c-3.026,2.019 -9.609,2.211 -5.414,10.892c0.34,0.703 2.73,2.44 4.745,4.425c-1.509,13.936 0.448,13.973 -1.616,32.791c-1.046,9.534 -3.295,10.206 -3.428,13.398c-0.096,2.301 -0.341,2.207 -5.827,20.382c-1.093,3.623 -0.879,3.594 -1.927,7.214c-0.911,3.148 -4.87,11.21 -5.118,13.417c-1.258,11.19 -2.501,10.815 -9.615,31.983c-14.29,42.523 -17.164,43.466 -20.532,58.477c-3.529,15.727 -7.33,19.869 -8.747,25.511c-3.772,15.018 -2.248,15.284 -2.736,16.533c-10.987,28.108 -3.394,47.263 -4.656,68.716c-0.683,11.615 -7.969,1.311 -8.356,0.763c-21.194,-29.975 -14.396,-57.976 -14.737,-61.305c-1.456,-14.182 0.237,-14.185 0.045,-15.403c-1.767,-11.215 -3.09,-14.214 9.153,-50.286c0.225,-0.663 0.3,-3.912 0.67,-5.245c1.099,-3.967 0.523,-3.946 0.637,-8.116c0.19,-6.927 4.484,-15.057 5.121,-16.263c7.928,-15.01 7.259,-15.263 7.995,-16.535c1.895,-3.277 -0.066,-4.15 8.464,-17.29c13.069,-20.13 5.657,-26.111 13.67,-37.444c9.943,-14.063 5.538,-16.07 10.038,-24.12c4.814,-8.611 0.582,-9.971 3.925,-15.497c8.621,-14.253 12.424,-44.645 11.372,-49.472c-3.32,-15.229 4.099,-39.617 -1.849,-59.334c-2.541,-8.421 -1.583,-8.554 -1.92,-9.228c-3.215,-6.437 -2.784,-6.608 -3.069,-7.163c-8.544,-16.688 -7.724,-17.168 -19.55,-31.668c-15.45,-18.942 -32.228,-24.68 -33.673,-24.186c-1.783,0.61 2.694,9.813 3.08,10.608c4.453,9.154 4.872,15.977 6.686,19.23c4.378,7.852 2.851,14.354 4.536,18.761c3.763,9.846 1.779,53.461 -0.193,60.361c-3.135,10.966 -4.017,10.612 -8.438,26.886c-6.988,25.726 -8.249,25.316 -8.704,27.585c-3.787,18.909 -15.825,36.832 -27.317,69.927c-10.749,30.956 -22.053,42.117 -32.744,67.83c-2.632,6.331 -0.742,6.901 -3.791,12.996c-1.673,3.346 -5.983,21.709 -6.827,23.797c-5.708,14.114 -0.557,15.333 -0.417,21.577c0.244,10.921 -0.52,14.139 -0.804,15.334c-0.629,2.649 0.776,5.421 0.753,6.206c-0.235,8.013 -8.091,-4.427 -20.863,-12.671c-18.58,-11.993 -25.686,-19.22 -31.936,-21.474c-3.774,-1.361 -4.98,-1.26 -4.848,-6.9c0.19,-8.097 -2.343,-7.875 -1.697,-15.437c1.301,-15.243 2.154,-15.083 2.196,-16.406c0.526,-16.605 7.886,-25.344 10.5,-33.841c2.927,-9.514 5.012,-8.767 6.872,-18.549c0.594,-3.127 15.329,-24.859 16.79,-26.527c6.625,-7.567 8.789,-18.24 15.752,-28.54c6.519,-9.644 3.509,-11.59 11.77,-19.877c9.323,-9.352 10.612,-19.287 12.722,-23.399c13.144,-25.62 12.34,-25.973 13.663,-28.093c6.914,-11.076 6.153,-15.059 12.231,-24.721c2.859,-4.545 14.048,-33.026 14.107,-33.535c0.812,-6.987 2.208,-6.582 3.443,-12.456c0.022,-0.105 1.269,-13.028 1.242,-13.242c-1.652,-13.426 -1.821,-19.036 -1.371,-45.182c0.378,-21.974 -11.016,-16.632 -12.533,-15.069c-3.077,3.171 -2.738,3.408 -6.128,6.28c-14.956,12.668 -15.575,11.722 -31.988,22.453c-3.999,2.614 -3.029,4.016 -7.491,5.552c-10.976,3.78 -40.907,18.077 -47.12,18.137c-2.863,0.028 -14.242,0.138 -34.938,7.743c-16.749,6.155 -17.442,2.724 -24.531,4.574c-11.503,3.003 -11.682,0.532 -35.993,2.002c-12.235,0.74 -84.474,-0.39 -88.246,0.141c-23.029,3.241 -28.071,-0.605 -34.998,1.453c-6.796,2.019 -9.413,0.677 -15.424,1.899c-11.547,2.348 -11.171,3.664 -12.189,3.716c-10.768,0.554 -10.796,0.36 -20.826,4.25c-18.292,7.094 -18.71,5.506 -21.4,6.403c-1.059,0.353 -12.98,4.331 -13.209,4.481c-6.257,4.094 -6.79,3.152 -12.699,7.707c-10.524,8.113 -33.218,17.818 -23.319,18.085c7.77,0.21 9.881,-2.495 13.5,-4.019c13.733,-5.781 21.457,-6.676 23.395,-6.9c10.717,-1.241 18.266,-7.09 27.825,-7.38c18.913,-0.573 18.613,-5.05 33.844,-3.322c5.111,0.58 4.963,-2.071 27.727,-2.157c15.009,-0.057 14.823,-2.331 29.77,-2.268c30.281,0.128 30.246,0.658 32.869,0.468c27.458,-1.988 27.427,0.257 29.78,-0.119c6.122,-0.978 6.124,-0.086 12.22,-0.709c6.398,-0.653 23.51,0.522 29.884,-0.128c8.789,-0.896 17.12,0.596 20.512,-0.301c17.357,-4.591 18.464,-2.712 31.654,-6.726c10.208,-3.107 10.48,-1.507 20.736,-4.443c9.157,-2.621 25.933,-3.795 37.665,-10.907c21.302,-12.913 20.509,-15.034 31.029,-16.222c9.737,-1.1 3.215,11.292 1.718,13.284c-4.269,5.68 -35.906,17.44 -39.759,18.441c-10.29,2.673 -9.256,6.814 -30.743,8.227c-18.96,1.247 -38.367,9.379 -81.068,9.187c-17.967,-0.081 -17.936,0.076 -19.495,0.033c-25.583,-0.715 -25.499,0.423 -27.697,0.141c-13.021,-1.671 -15.993,0.395 -21.538,-0.21c-11.027,-1.203 -16.606,2.961 -22.675,1.609c-1.355,-0.302 -6.666,-1.485 -17.301,1.333c-8.807,2.334 -22.952,1.156 -27.877,2.392c-9.362,2.348 -35.848,1.663 -46.185,4.137c-37.392,8.951 -39.729,3.307 -40.743,6.447c-4.064,12.584 11.687,2.928 25.272,6.493c7.903,2.074 11.32,-0.828 17.559,-0.999c1.806,-0.05 18.076,-0.496 22.582,-0.259c13.943,0.734 13.712,1.909 15.382,2.048c1.723,0.144 15.28,1.279 21.571,1.252c10.876,-0.047 10.762,-0.495 21.565,-0.764c28.41,-0.707 28.331,1.313 30.788,1.122c21.843,-1.704 21.841,-0.595 29.776,-0.405c21.996,0.526 29.089,-2.654 29.731,-2.759c4.82,-0.788 8.36,2.099 10.335,1.429c9.465,-3.207 26.201,-1.829 41.084,-5.061c24.492,-5.319 24.624,-4.475 26.698,-5.13c7.138,-2.253 7.694,0.235 14.448,-2.972c23.742,-11.273 29.902,-9.134 40.687,-15.15c16.219,-9.046 5.368,5.72 4.934,6.18c-1.304,1.382 -17.804,8.119 -19.124,8.403c-13.863,2.974 -17.376,6.693 -25.598,6.839c-2.823,0.05 -4.071,2.069 -6.148,2.726c-19.515,6.172 -19.236,7.807 -32.865,7.817c-9.423,0.007 -35.883,7.575 -53.388,6.684c-7.476,-0.381 -50.502,5.491 -67.733,2.855c-9.178,-1.404 -9.205,2.701 -14.455,1.414c-6.93,-1.699 -19.747,-0.253 -21.452,-0.06c-6.628,0.748 -9.086,-0.701 -13.385,-0.364c-26.172,2.05 -53.335,-0.496 -69.82,-0.322c-4.143,0.044 -4.125,1.028 -8.118,0.106c-2.852,-0.658 -22.922,-0.305 -24.762,0.049c-11.923,2.294 -32.124,0.133 -37.937,2.303c-15.154,5.657 -15.26,5.34 -16.521,5.959c-7.194,3.527 -8.049,0.936 -15.136,4.585c-4.169,2.147 -1.711,3.272 -1.378,3.261c1.462,-0.047 9.447,0.004 10.508,-0.236c9.812,-2.216 9.824,0.356 18.407,0.31c12.442,-0.067 12.405,1.123 13.444,0.837c12.493,-3.438 17.054,1.341 37.905,0.757c19.189,-0.537 23.876,4.697 32.85,4.913c10.812,0.26 10.755,-0.671 21.564,0.031c9.791,0.636 9.714,0.234 19.491,-0.027c10.297,-0.275 10.223,-0.041 20.563,-0.458c9.515,-0.383 9.371,1.207 15.374,1.031c7.814,-0.228 7.711,0.013 15.414,1.549c12.761,2.543 37.903,1.443 38.014,1.427c30.397,-4.489 36.987,3.896 64.548,-5.67c9.073,-3.149 14.903,-2.22 18.625,-3.727c15.111,-6.119 27.677,-2.889 38.77,-6.784c16.506,-5.796 17.387,-2.226 25.805,-5.761c6.63,-2.784 6.476,-2.998 13.457,-4.712c3.422,-0.84 11.837,2.969 -0.195,10.758c-10.838,7.016 -13.332,8.192 -28.462,13.011c-16.934,5.395 -17.333,3.732 -34.133,9.506c-20.895,7.181 -27.331,3.47 -42.054,6.149c-6.103,1.11 -13.816,0.816 -15.367,1.06c-11.714,1.842 -13.019,0.063 -21.538,-0.039c-16.732,-0.2 -45.984,-1.475 -52.353,-1.289c-9.345,0.272 -13.874,-2.772 -18.465,-2.952c-2.796,-0.109 -28.771,-1.123 -34.972,0.15c-16.699,3.428 -16.893,-2.559 -33.76,-0.319c-4.65,0.617 -8.971,-2.752 -12.369,-2.806c-22.736,-0.367 -22.696,-1.124 -24.659,-0.914c-8.26,0.884 -8.213,0.671 -17.433,0.04c-9.63,-0.66 -16.258,2.837 -25.577,0.727c-3.377,-0.765 -5.328,0.363 -17.535,0.134c-11.35,-0.212 -11.285,0.058 -22.597,0.035c-18.244,-0.037 -18.46,-2.055 -29.708,1.494c-17.669,5.575 -18.4,4.411 -21.416,5.433c-9.992,3.387 -23.092,4.592 -25.672,6.913c-3.135,2.821 -3.622,1.871 -7.464,3.722c-8.248,3.974 2.487,5.119 4.155,5.478c7.761,1.67 12.367,-2.865 17.477,-2.916c0.575,-0.006 0.562,0.112 7.184,0.168c7.496,0.063 8.49,-1.217 15.4,-1.21c61.468,0.067 61.396,-0.458 66.73,-0.258c18.087,0.679 18.635,-1.296 24.372,2.38c4.292,2.751 12.114,3.527 53.617,14.133c8.015,2.048 13.691,0.916 16.403,1.336c11.743,1.817 11.666,1.568 23.642,1.994c1.058,0.038 8.902,3.428 14.431,3.065c6.855,-0.45 6.568,1.08 13.246,2.912c9.519,2.611 9.463,2.745 10.29,2.969c34.409,9.317 42.717,3.1 51.278,4.502c7.438,1.218 17.844,0.329 20.545,1.02c6.014,1.538 19.997,1.712 39.086,1.701c34.415,-0.02 33.661,-4.873 49.365,-9.048c13.365,-3.553 21.514,-9.564 25.628,-10.306c9.942,-1.794 0.771,7.211 0.205,8.084c-15.715,24.216 -15.838,24.127 -17.06,26.318c-2.925,5.246 -8.053,4.309 -15.946,9.604c-9.844,6.604 -15.906,5.31 -49.268,15.632c-7.579,2.345 -88.388,0.748 -91.566,-0.008c-10.63,-2.53 -48.176,-6.386 -50.108,-6.963c-10.587,-3.166 -10.718,-2.115 -21.56,-4.143c-44.025,-8.234 -60.461,-17.671 -65.789,-18.156c-11.284,-1.029 -10.529,-3.742 -21.516,-6.26c-3.624,-0.83 -3.842,0.177 -10.121,-2.323c-11.194,-4.456 -13.098,1.631 -23.023,-5.309c-1.14,-0.797 -1.216,-0.74 -17.165,-2.794c-10.404,-1.34 -10.229,-4.755 -20.503,-2.433c-0.489,0.111 -20.449,0.976 -20.624,0.954c-19.835,-2.493 -24.136,1.744 -37.96,1.41c-10.079,-0.243 -17.702,2.323 -21.505,2.964c-13.316,2.245 -32.227,7.343 -35.053,8.555c-8.154,3.495 -18.184,7.681 -18.213,7.699c-8.847,5.468 -8.376,6.046 -17.413,11.347c-6.244,3.663 1.309,4.51 4.93,3.802c12.159,-2.379 12.302,1.212 24.571,-0.359c14.899,-1.907 74.544,-0.93 75.025,-0.78c4.042,1.257 3.949,1.446 8.208,1.973c13.7,1.695 13.565,2.775 21.543,2.355c9.984,-0.525 9.89,0.285 19.568,2.549c11.711,2.739 12.427,5.388 19.439,6.487c30.727,4.818 30.111,7.216 32.781,7.552c6.534,0.821 14.327,3.129 14.369,3.134c4.047,0.503 7.065,5.117 17.497,5.285c15.912,0.255 19.526,8.257 26.693,8.276c6.325,0.017 6.08,1.16 12.25,2.798c13.984,3.713 22.153,7.138 23.686,7.206c12.372,0.543 11.613,4.575 20.544,4.633c26.849,0.175 26.53,3.501 53.372,4.562c23.181,0.916 23.169,-2.635 45.173,-0.177c2.97,0.332 9.713,-1.327 14.377,-1.613c21.057,-1.289 20.587,-4.219 30.771,-4.933c8.341,-0.585 11.44,-7.499 25.595,-4.386c5.465,1.202 5.662,6.836 -7.078,10.874c-24.523,7.774 -24.439,7.999 -26.615,8.512c-12.283,2.895 -12.109,3.747 -24.71,4.059c-6.296,0.156 -5.988,2.191 -12.335,2.126c-7.339,-0.076 -7.202,2.969 -14.311,1.379c-13.977,-3.126 -15.655,4.54 -42.109,-0.132c-12.53,-2.213 -12.629,-4.202 -21.566,-1.489c-2.041,0.62 -20.115,-0.841 -30.744,-3.559c-15.946,-4.079 -16.035,-3.7 -17.367,-4.219c-16.302,-6.358 -21.622,-2.077 -41.106,-10.091c-4.568,-1.879 -12.543,-1.666 -17.324,-4.239c-8.948,-4.814 -21.901,-4.046 -27.725,-7.22c-9.119,-4.969 -10.287,-3.225 -12.352,-4.113c-4.123,-1.773 -4.387,-0.791 -8.465,-2.524c-4.419,-1.877 -4.383,-1.89 -9.174,-2.343c-4.791,-0.454 -4.509,-1.435 -9.193,-2.186c-21.701,-3.479 -21.766,-2.815 -23.638,-3.185c-41.397,-8.177 -41.559,-6.499 -45.142,-7.236c-14.897,-3.064 -17.956,0.074 -23.694,0.094c-20.594,0.073 -20.566,-1.589 -41.034,0.56c-15.283,1.605 -15.792,-3.666 -49.375,4.604c-1.223,0.301 -26.136,6.563 -26.475,6.774c-9.609,5.976 -23.004,11.752 -25.377,13.61c-7.718,6.045 -2.779,10.197 2.477,8.257c10.947,-4.04 11.155,-2.94 22.676,-5.048c16.947,-3.101 17.02,-2.672 18.443,-3.137c5.872,-1.921 11.772,0.488 15.583,-0.18c11.666,-2.046 26.398,-0.585 28.681,-0.359c19.138,1.897 34.188,-2.964 48.405,3.731c5.67,2.67 12.036,1.868 13.247,2.195c16.078,4.341 17.798,1.705 24.665,4.041c6.435,2.189 6.582,1.123 13.181,2.698c12.248,2.922 12.247,2.588 13.22,3.07c6.753,3.341 7.245,1.956 10.422,2.134c0.38,0.021 7.909,2.758 8.244,2.782c8.631,0.61 9.069,-1.406 16.59,2.678c6.8,3.693 43.657,12.009 49.99,14.973c7.774,3.639 8.324,1.37 16.522,3.938c10.299,3.227 24.721,4.418 28.628,6.326c1.777,0.868 9.444,4.611 23.86,6.45c17.714,2.259 25.395,4.237 27.562,4.795c3.866,0.995 20.122,1.947 24.841,3.46c8.641,2.771 45.508,1.795 53.331,0.602c9.646,-1.471 9.679,-0.302 19.439,-1.355c6.993,-0.754 7.572,4.74 11.321,4.873c17.056,0.604 26.984,4.897 42.309,14.255c20.842,12.727 21.489,11.587 41.472,25.553c13.463,9.41 12.948,12.242 20.068,18.816c6.174,5.7 31.884,37.383 35.255,43.595c1.419,2.614 11.12,20.485 18.332,32.349c7.08,11.647 18.319,40.353 19.107,59.257l-11.292,0c-0.085,-4.837 0.344,-4.846 -0.669,-8.815c-1.194,-4.678 -1.373,-4.621 -1.439,-5.035c-0.544,-3.381 0.816,-4.141 -15.027,-27.928c-3.254,-4.885 -0.206,-6.293 -8.924,-20.085c-25.346,-40.096 -27.545,-38.517 -38.956,-55.452c-5.782,-8.581 -7.833,-6.703 -10.848,-10.576c-5.658,-7.266 -6.663,-6.094 -13.541,-12.133c-32.341,-28.396 -57.79,-37.962 -62.485,-39.271c-19.068,-5.314 -25.673,-11.219 -29.41,-7.627c-6.318,6.073 -7.207,5.003 -13.203,11.427c-10.434,11.178 13.636,7.235 21.115,11.584c25.729,14.961 29.409,15.434 39.838,23.907c10.586,8.601 16.978,9.97 19.447,12.36c8.123,7.865 8.396,7.593 8.952,8.402c8.057,11.72 18.305,16.593 33.517,35.395c11.174,13.811 14.578,11.419 18.888,20.885c12.407,27.248 21.835,32.302 27.081,62.961l-16.425,0c0.396,-6.518 -8.621,-23.955 -12.257,-28.286c-8.94,-10.653 -5.256,-13.139 -14.741,-23.289c-17.594,-18.829 -12.74,-23.447 -34.227,-38.733c-6.577,-4.679 -5.768,-5.608 -12.342,-10.232c-5.415,-3.809 -4.114,-5.748 -13.785,-9.56c-3.051,-1.202 -2.902,-1.432 -13.271,-7.409c-0.563,-0.324 -2.586,-2.855 -5.192,-3.951c-6.823,-2.871 -7.045,-2.267 -13.521,-5.955c-3.157,-1.798 -29.839,-15.365 -39.781,-15.205c-0.549,0.009 -11.072,1.765 -10.599,-3.694c0.25,-2.88 10.849,-10.518 2.381,-11.211c-8.285,-0.677 -8.242,-0.52 -16.398,-2.213c-3.804,-0.79 -18.678,0.384 -29.737,-1.255c-5.068,-0.751 -10.178,1.244 -14.541,-0.405c-9.786,-3.698 -16.497,-1.202 -29.637,-5.464c-5.94,-1.927 -6.905,0.128 -17.433,-2.179c-6.945,-1.522 -8.491,1.573 -20.699,-2.575c-5.445,-1.85 -5.777,-0.247 -11.091,-2.548c-1.463,-0.633 -1.934,-0.837 -19.624,-3.464c-5.116,-0.76 -5.117,-0.421 -10.184,-1.632c-15.133,-3.619 -15.772,-2.266 -29.94,-6.64c-5.994,-1.85 -6.496,-0.01 -14.433,-4.111c-11.355,-5.868 -13.806,-2.563 -20.403,-7.518c-4.076,-3.061 -8.437,-0.344 -12.525,-2.648c-8.575,-4.834 -11.105,-2.107 -21.074,-7.114c-7.806,-3.921 -19.543,-1.006 -31.982,-7.864c-5.638,-3.108 -32.863,-3.846 -48.243,-9.304c-2.835,-1.006 -12.074,1.193 -26.662,-3.195c-1.051,-0.316 -1.151,0.212 -13.444,-2.734c-1.862,-0.446 -4.672,-2.17 -6.143,-2.039c-19.483,1.738 -19.527,1.558 -23.559,0.7c-0.218,-0.046 -33.323,-0.706 -35.068,-0.061c-24.046,8.886 -35.663,1.172 -46.358,8.131c-7.495,4.876 -10.939,0.849 -21.699,12.317c-0.714,0.761 -10.463,7.416 -0.604,6.934c16.595,-0.811 16.662,1.663 30.844,-0.932c4.196,-0.768 4.219,0.526 53.322,-0.666c29.097,-0.706 56.744,14.352 63.657,14.405c9.244,0.071 8.876,1.74 22.652,7.14c10.656,4.177 13.784,8.681 25.579,9.591c4.671,0.361 3.689,2.917 10.334,4.755c6.712,1.857 4.97,5.533 16.293,8.718c5.79,1.629 5.445,2.259 10.54,5.53c7.935,5.095 9.918,0.655 39.924,16.596c10.58,5.621 11.601,3.105 18.098,6.829c6.867,3.937 7.155,3.156 14.531,6.002c5.401,2.084 4.99,2.863 10.425,4.734c4.69,1.614 4.499,1.916 9.278,2.879c1.327,0.268 1.225,0.562 16.268,4.667c7.148,1.951 10.127,4.983 23.709,6.856c10.561,1.456 11.414,4.011 18.486,3.173c1.866,-0.221 4.071,1.273 5.081,1.32c1.04,0.049 2.081,-0.038 3.122,-0.026c5.748,0.067 5.651,1.283 11.282,0.59c0.374,-0.046 6.798,-0.062 0.378,4.691c-1.075,0.796 -12.033,8.907 -12.801,10.754c-1.472,3.538 2.37,2.368 15.428,0.691c6,-0.771 7.031,-2.169 17.432,0.817c12.258,3.52 12.611,1.938 24.665,5.934c3.653,1.211 7.132,0.4 14.303,3.319c7.998,3.256 8.75,1.464 15.84,6.304c4.856,3.316 11.74,2.205 23.2,10.862c5.031,3.8 20.947,12.964 22.804,14.033c8.625,4.966 6.95,7.637 15.298,10.442c4.44,1.492 17.592,12.077 22.258,19.714c3.355,5.492 3.012,5.911 8.571,8.987c2.044,1.131 2.933,5.193 3.044,5.698l-27.717,0c-2.906,-5.548 -9.617,-10.089 -11.152,-11.929c-7.129,-8.54 -21.186,-16.691 -29.763,-23.672c-11.337,-9.227 -13.247,-6.225 -24.858,-15.123c-8.53,-6.537 -47.991,-18.198 -59.558,-21.378c-20.038,-5.51 -25.598,-1.081 -38.895,-3.55c-6.11,-1.134 -26.165,0.238 -26.625,0.436c-8.386,3.601 -7.85,6.518 -26.794,6.619c-24.149,0.13 -23.887,-2.087 -29.963,-4.348c-17.147,-6.381 -16.57,-7.533 -33.623,-13.932c-13.179,-4.945 -11.699,-7.867 -24.799,-12.905c-7.325,-2.817 -6.031,-4.773 -10.371,-7.071c-7.944,-4.205 -7.698,-4.44 -14.337,-10.471c-3.201,-2.907 -5.227,-0.382 -8.463,-5.031c-7.721,-11.091 -16.237,-9.196 -36.401,-26.128c-7.145,-5.999 -7.885,-4.758 -15.429,-10.241c-8.573,-6.232 -9.797,-3.901 -15.18,-7.522c-10.043,-6.755 -11.341,-3.904 -22.05,-9.439c-10.12,-5.23 -34.286,-6.631 -38.617,-8.974c-6.29,-3.402 -7.102,-0.519 -12.396,-2.965c-5.616,-2.594 -30.78,-0.638 -39.014,-3.221c-1.302,-0.408 -1.316,-0.245 -15.524,-0.603c-27.686,-0.696 -27.2,2.94 -31.746,3.437c-9.244,1.011 -8.815,2.31 -17.298,6.292c-5.72,2.685 0.649,4.546 1.658,4.995c1.294,0.577 6.604,2.943 17.622,1.774c21.224,-2.253 66.491,9.55 78.099,14.058c2.935,1.14 6.942,0.765 8.179,1.067c15.043,3.669 23.263,9.813 27.682,11.436c16.503,6.059 15.379,11.299 39.788,26.084c13.664,8.276 11.511,10.858 21.09,17.67c26.603,18.92 24.832,21.541 44.62,31.688c20.319,10.42 20.102,10.768 21.876,11.653c35.623,17.774 43.658,10.468 51.235,9.497c2.26,-0.29 26.165,0.761 26.702,0.813c19.481,1.906 19.37,-2.635 38.968,-1.421c18.807,1.165 19.384,-1.834 35.855,4.914c2.241,0.918 5.233,0.226 8.203,1.168c46.199,14.644 44.24,19.319 48.299,20.372c1.193,0.31 9.155,2.376 14,6.441c7.703,6.464 8.265,5.504 17.109,10.365c9.68,5.32 9.628,5.7 11.038,9.142l-57.487,0c-4.38,-10.916 -18.466,-14.941 -20.312,-17.119c-5.906,-6.967 -8.405,-3.364 -16.397,-9.385c-16.466,-12.404 -21.702,-10.51 -26.001,-11.74c-10.216,-2.924 -10.405,-1.811 -11.287,-2.068c-10.67,-3.109 -51.322,-2.126 -58.31,0.179c-4.171,1.376 -4.522,4.608 -0.137,4.902c6.886,0.461 7.29,-0.563 13.593,3.587c7.542,4.966 8.423,3.113 10.778,4.824c7.319,5.317 27.318,13.789 33.135,26.821l-29.77,0c-2.615,-6.619 -15.305,-16.715 -19.349,-12.675c-8.862,8.854 -12.362,5.022 -16.581,12.675l-21.558,0c1.609,-3.154 2.135,-2.631 5.042,-4.743c14.708,-10.688 26.593,-14.952 19.676,-17.498c-6.932,-2.551 -7.599,-2.527 -8.291,-2.501c-11.402,0.419 -11.141,-7.942 -18.292,-4.191c-14.524,7.618 -22.269,14.345 -24.007,15.854c-10.529,9.145 -12.736,7.126 -15.19,13.08l-23.611,0c1.596,-1.74 1.506,-1.765 3.423,-3.163c9.91,-7.221 8.38,-8.898 13.352,-12.263c9.248,-6.259 9.816,-5.46 17.609,-13.37c0.741,-0.753 7.26,-4.017 5.777,-7.714c-1.158,-2.888 -3.994,0.393 -15.761,-6.712c-13.685,-8.264 -15.95,-6.281 -17.024,-5.34c-1.842,1.613 -0.981,2.306 -19.253,23.794c-7.131,8.385 -6.001,9.224 -13.562,17.281c-3.888,4.144 -4.053,4.178 -4.331,7.488l-25.664,0c0.521,-6.464 2.019,-5.817 5.879,-10.982c1.075,-1.439 -0.465,-2.397 11.939,-19.012c1.092,-1.463 0.939,-1.547 12.557,-19.056c6.433,-9.695 5.552,-14.144 3.362,-14.637c-11.251,-2.536 -9.377,-5.586 -17.818,-15.391c-5.741,-6.669 -5.887,-6.412 -12.767,-11.864c-3.435,-2.722 -6.778,-9.484 -15.704,-14.951c-42.421,-25.982 -43.813,-26.588 -47.896,-28.366c-16.018,-6.974 -16.981,-4.346 -21.561,-7.101c-7.683,-4.621 -8.75,-2.402 -16.184,-7.465c-5.925,-4.034 -36.09,-9.286 -50.642,-10.187c-3.983,-0.247 -6.907,-4.246 -11.329,-4.236c-1.029,0.002 -2.053,0.154 -3.081,0.182c-5.568,0.153 -5.514,-2.497 -17.395,-0.453c-8.263,1.422 -9.103,-0.694 -17.247,5.269c-20.603,15.086 -13.365,19.787 -11.571,20.318c6.875,2.038 29.995,-3.575 40.974,1.16c7.658,3.303 22.104,1.55 40.071,6.291c9.453,2.494 10.169,0.248 23.817,7.616c20.973,11.322 22.448,8.03 30.957,13.067c6.374,3.774 6.499,3.267 11.861,5.077c2.227,0.752 1.665,1.943 26.714,12.222c9.674,3.97 8.487,6.383 18.52,9.217c0.377,0.107 11.681,5.836 8.452,7.96c-6.852,4.507 -3.922,6.256 -4.681,10.08c-1.241,6.256 -2.249,5.919 -3.125,12.327c-1.384,10.125 -5.415,8.089 -13.162,21.434c-0.789,1.359 -1.546,0.788 -11.632,15.82c-6.856,10.219 -12.005,10.676 -13.588,14.168c-0.207,0.456 0.078,1.039 -0.128,1.495l-32.85,0c1.867,-8.424 4.598,-7.329 11.925,-20.254c5.322,-9.388 7.23,-7.935 13.069,-16.995c1.549,-2.404 15.824,-19.681 18.247,-21.615c5.76,-4.597 4.961,-5.407 10.938,-9.752c4.069,-2.958 11.32,-7.799 0.058,-11.478c-15.224,-4.974 -19.49,-0.463 -32.644,-1.793c-21.433,-2.168 -23.353,10.562 -35.773,24.055c-9.179,9.973 -9.165,10.006 -28.245,43.79c-1.706,3.021 -2.933,5.655 -3.166,6.157c-1.787,3.838 -1.588,3.831 -2.657,7.886l-21.558,0c1.314,-13.671 7.442,-11.201 11.927,-24.259c5.92,-17.237 7.935,-16.204 16.269,-32.462c1.243,-2.424 12.585,-16.915 13.126,-17.451c3.276,-3.25 10.615,-8.734 -1.259,-11.646c-11.191,-2.745 -18.331,-5.655 -27.778,-4.304c-1.629,0.233 -10.359,-1.693 -11.84,1.56c-6.46,14.193 -14.1,40.047 -20.469,50.386c-7.457,12.104 -6.181,18.7 -12.391,32.731c-0.183,0.412 -0.523,1.182 -1.461,5.445l-12.319,0c2.201,-13.29 5.925,-15.024 10.025,-26.265c9.87,-27.059 11.586,-26.34 12.211,-28.76c6.726,-26.063 10.047,-25.359 9.531,-31.712c-0.879,-10.811 -26.044,-3.716 -26.625,-3.698c-12.256,0.369 -10.68,6.526 -10.7,16.011c-0.034,16.572 -3.19,22.71 -3.387,28.763c-0.334,10.283 -3.613,16.703 -3.764,18.406c-1.216,13.748 -1.538,13.598 -3.715,27.256l-11.292,-0c2.917,-17.501 2.486,-17.57 2.95,-19.04c5.853,-18.542 3.949,-30.393 6.881,-41.141c0.86,-3.153 1.771,-3.052 1.585,-22.461c-0.048,-4.992 -9.096,-5.295 -12.48,-4.204c-15.618,5.037 -16.336,2.261 -26.443,6.716c-7.921,3.492 -3.904,6.12 -4.04,14.95c-0.244,15.818 1.075,15.923 1.377,23.626c0.104,2.639 3.726,30.834 4.505,41.554l-14.372,0c0.517,-3.371 -0.835,-3.337 -1.335,-42.603c-0.128,-10.029 -1.948,-12.355 -1.325,-24.617c0.412,-8.104 -6.222,-8.217 -7.092,-8.232l-0,-9.239c7.164,-1.222 12.206,-0.511 20.257,-4.726c2.3,-1.204 19.659,-5.889 21.382,-6.354c21.083,-5.689 21.605,-1.929 43.123,-5.899c0.732,-0.135 19.742,-1.835 20.467,-1.803c9.352,0.415 9.232,2.399 18.455,1.171c8.062,-1.074 17.188,1.441 32.847,2.682c4.194,0.333 16.033,2.587 17.42,2.851c16.458,3.134 27.724,9.649 20.792,-0.378c-4.607,-6.664 -5.921,-5.049 -13.41,-9.356c-8.663,-4.982 -16.116,-5.128 -17.581,-5.157c-3.014,-0.059 -6.226,-2.991 -10.235,-3.202c-7.304,-0.383 -18.424,-7.112 -32.911,-5.911c-1.881,0.156 -1.856,-0.305 -23.593,-0.223c-12.931,0.049 -17.085,-3.149 -41.121,4.245c-3.28,1.009 -4.894,-0.663 -26.569,6.575c-3.211,1.072 -12.438,4.243 -16.392,6.155c-6.164,2.982 -6.08,3.124 -12.931,3.931l0,-10.266c3.562,-0.202 4.401,-0.459 8.307,-3.539c8.093,-6.381 8.879,-5.305 16.074,-12.627c2.901,-2.953 4.39,-1.57 7.65,-5.637c14.473,-18.055 40.391,-36.61 48.987,-48.701c5.664,-7.967 6.487,-7.107 9.728,-10.69c12.121,-13.396 8.139,-20.799 21.255,-37.171c9.734,-12.151 5.22,-15.452 9.161,-27.561c9.22,-28.332 3.248,-32.083 6.186,-43.078c6.219,-23.271 2.058,-25.698 2.951,-48.122c0.593,-14.905 0.791,-14.833 0.033,-29.805c-1.058,-20.915 -2.127,-20.763 -2.128,-22.578c-0.001,-2.718 8.791,-1.837 9.876,-1.864c11.856,-0.296 28.506,-12.777 28.148,-0.17c-0.566,19.903 2.374,41.426 -0.154,51.411c-3.305,13.053 -1.611,13.287 -1.958,14.397c-4.651,14.893 -3.828,15.114 -4.339,16.368c-4.933,12.09 -1.109,16.029 -4.572,24.457c-5.701,13.873 -4.58,14.21 -5.125,15.387c-6.264,13.534 -6.03,13.529 -6.724,14.613c-6.661,10.415 -6.078,20.646 -17.996,36.549c-1.141,1.522 -17.655,23.557 -8.805,22.091c1.792,-0.297 2.241,-0.371 17.186,-14.84c12.722,-12.317 16.534,-8.631 24.213,-22.142c10.358,-18.225 11.65,-21.646 12.405,-23.644c8.093,-21.428 18.849,-38.366 21.142,-48.409c2.396,-10.497 7.185,-14.161 7.24,-19.511c0.213,-20.561 3.972,-20.565 8.622,-47.16c3.484,-19.925 3.86,-19.844 3.996,-21.596c0.89,-11.48 1.111,-11.412 0.962,-12.396c-1.935,-12.72 -0.951,-12.748 -1.833,-25.572c-0.644,-9.361 1.055,-9.33 -0.165,-18.549c-1.552,-11.724 -5.064,-12.635 -10.833,-9.529c-12.333,6.64 -12.903,5.33 -25.312,11.958c-14.386,7.684 -23.636,5.435 -31.703,10.431c-5.69,3.524 -6.136,2.107 -12.633,3.489c-14.786,3.144 -32.35,2.255 -34.949,2.864c-20.599,4.83 -20.771,3.856 -22.554,4.294c-11.05,2.714 -11.159,1.68 -22.46,3.526c-9.722,1.588 -46.843,0.344 -49.878,0.714l0,-23.611c3.567,0.213 25.597,-4.405 33.49,-7.884c10.162,-4.479 11.228,-0.407 24.526,-5.424c10.056,-3.794 10.816,0.088 22.729,-3.719c15.703,-5.018 17.317,-0.317 34.645,-6.869c2.406,-0.91 24.793,-3.042 29.864,-2.729c25.002,1.544 26.233,1.599 33.822,-2.239c1.556,-0.787 27.034,-1.93 47.978,-15.759c0.751,-0.496 12.828,-10.698 14.992,-4.772c0.063,0.174 0.531,44.501 0.572,48.371c0.201,19.051 1.082,18.994 -0.071,37.965c-0.146,2.41 1.174,3.247 -4.164,21.493c-0.331,1.13 -0.131,1.16 -2.972,14.411c-2.137,9.965 -0.981,10.205 -4.596,19.674c-4.653,12.187 -4.771,22.695 -11.221,36.02c-2.287,4.725 -1.154,4.998 -2.779,9.96c-1.605,4.9 2.212,6.117 -4.432,15.74c-1.898,2.749 -4.083,10.783 -11.063,21.047c-1.406,2.067 -19.972,30.512 -14.003,31.212c10.622,1.245 25.556,-17.482 33.72,-24.018c1.835,-1.469 31.356,-34.366 42.457,-67.442c4.303,-12.82 5.68,-12.35 8.273,-25.673c2.626,-13.493 7.104,-18.884 8.643,-36.029c1.047,-11.665 4.042,-11.23 3.869,-27.68c-0.098,-9.331 2.091,-9.182 1.095,-18.537c-0.923,-8.673 2.647,-14.84 2.662,-21.494c0.031,-14.46 1.504,-14.332 1.386,-28.741c-0.225,-27.494 -2.6,-54.602 -0.608,-60.622c0.116,-0.351 1.507,-4.554 0.186,-4.615c-1.498,-0.07 -0.573,2.589 -17.428,6.904c-9.771,2.502 -16.511,11.243 -33.928,12.033c-1.94,0.088 -17.852,6.85 -28.775,7.815c-1.365,0.121 -2.741,0.046 -4.109,0.128c-0.557,0.033 -5.538,1.477 -7.143,1.508c-17.333,0.333 -16.791,3.774 -34.94,5.66c-0.934,0.097 -18.794,3.538 -20.427,3.852c-3.151,0.607 -3.02,1.074 -6.231,1.153c-9.004,0.221 -8.526,2.705 -17.453,3.576c-8.268,0.807 -8.128,1.561 -16.414,1.671c-2.147,0.028 -2.081,0.448 -26.757,2.093c-2.565,0.171 -9.575,2.54 -28.602,5.982c-2.35,0.425 -1.812,2.439 -28.826,7.735c-8.845,1.734 -7.953,4.1 -11.371,4.727c-0.893,0.164 -0.867,0.113 -6.595,0.4l0,-18.478c1.8,-0.202 1.699,-0.309 3.576,-0.401c5.72,-0.282 46.957,-18.779 48.102,-19.406c8.072,-4.419 8.733,-2.173 17.515,-5.125c7.469,-2.51 12.43,-2.949 18.715,-5.48c11.746,-4.73 26.225,-4.394 31.717,-6.475c8.878,-3.364 8.893,-3.355 18.444,-3.296c5.362,0.033 5.064,-2.101 23.663,-3.619c4.396,-0.359 3.968,-3.5 22.535,-3.273c12.484,0.153 12.204,-2.467 24.643,-2.571c17.701,-0.148 17.37,-3.384 26.692,-3.309c11.282,0.092 18.471,-5.617 41.998,-12.036c9.527,-2.6 9.255,-3.217 18.567,-6.862c5.729,-2.243 15.961,-16.067 13.533,-2.033c-1.419,8.198 -0.052,8.151 0.013,16.398c0.045,5.681 -0.61,5.588 -0.632,11.282c-0.05,12.813 0.542,12.75 0.694,19.508c1.904,84.178 0.338,84.177 1.383,91.416c5.938,41.159 -17.931,88.948 -17.97,89.288c-1.045,8.969 -8.765,22.62 -3.317,24.858c3.858,1.584 3.313,-0.692 5.394,-4.279c1.515,-2.61 2.841,-1.08 6.743,-5.491c13.618,-15.395 20.653,-31.28 21.282,-32.26c5.311,-8.27 17.85,-34.941 16.998,-46.495c-3.356,-45.516 0.215,-45.56 -1.413,-58.467c-1.92,-15.225 2.64,-21.252 1.619,-25.748c-3.216,-14.159 -0.676,-87.339 -0.81,-99.547c-0.137,-12.494 3.1,-19.015 3.591,-23.619c0.943,-8.823 1.685,-8.635 2.793,-17.488c1.082,-8.647 -9.92,2.33 -10.297,2.647c-9.178,7.716 -47.295,28.201 -48.751,28.576c-47.89,12.333 -60.439,12.663 -65.8,12.804c-15.267,0.401 -15.119,1.09 -37.912,3.641c-19.008,2.127 -18.971,1.35 -20.614,1.537c-9.836,1.12 -9.424,3.28 -35.9,6.474c-21.93,2.646 -26.536,6.965 -32.839,7.243c-10.653,0.469 -10.095,2.782 -20.54,4.974c-14.061,2.951 -17.187,6.692 -23.676,7.765c-10.46,1.729 -13.501,7.41 -23.477,9.065c-14.197,2.356 -14.19,8.338 -26.265,10.796l0,-24.638c8.513,1.202 7.568,-3.277 15.963,-4.857c1.615,-0.304 30.267,-14.186 49.418,-21.354c5.684,-2.127 15.986,-5.83 17.378,-6.331c8.483,-3.049 8.401,-3.136 17.267,-4.684c13.166,-2.3 12.606,-4.509 25.798,-6.551c3.93,-0.608 5.848,-2.56 12.287,-3.085c2.804,-0.228 28.169,-2.293 34.935,-3.979c1.807,-0.45 4.553,1.699 8.181,0.661c21.524,-6.154 46.352,-0.929 76.853,-10.764c11.765,-3.793 12.2,-2.107 23.772,-6.669c3.627,-1.43 3.196,-2.523 8.15,-3.225c10.873,-1.542 9.996,-4.255 20.55,-7.113c11.133,-3.015 24.007,-15.639 25.783,-17.38c11.891,-11.659 16.256,-6.984 26.554,-22.211Z" style="fill:#25686d;"/><path d="M1051.199,222.251l0,317.208c-2.809,3.957 -1.33,4.662 -1.521,10.267c-0.02,0.59 -1.841,4.327 -2.14,6.147c-0.283,1.725 -0.443,3.472 -0.8,5.184c-0.571,2.736 -3.774,18.09 -1.504,34.905c1.383,10.247 0.629,10.304 0.83,11.178c1.69,7.346 1.388,20.557 3.915,25.632c0.247,0.496 0.973,0.634 1.22,1.13l0,25.664c-11.864,-2.369 -13.063,-5.826 -24.367,-12.957c-23.441,-14.786 0.271,11.665 1.596,18.021c2.383,11.434 6.472,9.074 22.771,29.839c-1.266,0.876 1.266,3.742 0,4.619c-1.654,1.145 -1.893,-0 -25.15,-0l-31.823,0c-0.108,-0.496 -3.172,-19.88 -12.829,-36.133c-6.472,-10.892 -1.548,-13.158 -9.313,-23.239c-3.109,-4.036 -7.313,-9.204 -8.143,-11.166c-4.12,-9.737 -4.503,-9.538 -11.598,-17.419c-5.959,-6.619 -3.595,-8.483 -12.814,-16.95c-13.249,-12.17 -22.655,-30.059 -26.394,-30.21c-7.406,-0.299 8.782,20.27 10.441,23.637c11.051,22.436 14.92,20.018 21.982,34.224c15.307,30.794 15.106,44.711 15.131,44.829c0.488,2.297 3.745,3.884 5.034,7.197c5.438,13.976 8.859,13.213 7.971,25.229l-33.877,0c-0.068,-2.306 -0.154,-2.223 -0.23,-4.606c-0.559,-17.464 -5.207,-16.301 -7.479,-25.816c-3.954,-16.557 -13.381,-26.07 -19.313,-44.921c-0.784,-2.493 -0.864,-2.458 -16.668,-28.095c-5.101,-8.274 -4.744,-8.363 -8.599,-17.216c-1.332,-3.058 -4.025,-9.241 -25.811,-32.745c-7.379,-7.96 -8.26,-7.378 -12.546,-17.379c-3.717,-8.673 -23.439,-31.11 -25.63,-32.6c-5.873,-3.995 -4.558,-5.478 -8.019,-7.434c-8.351,-4.721 -5.426,-8.049 -13.479,-13.19c-10.218,-6.523 -9.935,-6.857 -18.394,-15.558c-5.324,-5.477 -9.326,2.137 -23.689,11.852c-1.061,0.717 -18.027,12.193 -10.038,12.467c16.961,0.581 16.055,7.599 25.638,9.448c6.639,1.281 6.598,1.535 11.97,5.553c11.923,8.92 11.015,9.886 22.169,19.776c5.253,4.658 7.704,1.783 24.924,21.233c25.614,28.932 26.615,35.433 29.128,38.691c6.141,7.959 5.411,8.357 10.974,16.631c27.193,40.441 28.885,62.318 33.516,73.537c3.695,8.95 6.706,26.221 6.937,30.374l-27.717,-0c-0.788,-18.904 -12.027,-47.61 -19.107,-59.257c-7.212,-11.864 -16.913,-29.734 -18.332,-32.349c-3.372,-6.212 -29.082,-37.894 -35.255,-43.595c-7.12,-6.574 -6.605,-9.407 -20.068,-18.816c-19.983,-13.966 -20.63,-12.826 -41.472,-25.553c-15.325,-9.358 -25.253,-13.651 -42.309,-14.255c-3.749,-0.133 -4.327,-5.627 -11.321,-4.873c-9.76,1.053 -9.793,-0.116 -19.439,1.355c-7.823,1.193 -44.69,2.168 -53.331,-0.602c-4.719,-1.513 -20.975,-2.465 -24.841,-3.46c-2.167,-0.558 -9.848,-2.535 -27.562,-4.795c-14.417,-1.839 -22.084,-5.582 -23.86,-6.45c-3.908,-1.908 -18.329,-3.099 -28.628,-6.326c-8.198,-2.569 -8.748,-0.299 -16.522,-3.938c-6.332,-2.964 -43.19,-11.28 -49.99,-14.973c-7.521,-4.085 -7.959,-2.068 -16.59,-2.678c-0.335,-0.024 -7.864,-2.76 -8.244,-2.782c-3.177,-0.178 -3.669,1.207 -10.422,-2.134c-0.973,-0.481 -0.972,-0.148 -13.22,-3.07c-6.599,-1.574 -6.746,-0.509 -13.181,-2.698c-6.867,-2.336 -8.588,0.3 -24.665,-4.041c-1.21,-0.327 -7.577,0.475 -13.247,-2.195c-14.217,-6.695 -29.267,-1.834 -48.405,-3.731c-2.283,-0.226 -17.015,-1.687 -28.681,0.359c-3.812,0.668 -9.711,-1.74 -15.583,0.18c-1.422,0.465 -1.496,0.036 -18.443,3.137c-11.522,2.108 -11.729,1.008 -22.676,5.048c-5.256,1.94 -10.196,-2.212 -2.477,-8.257c2.373,-1.859 15.768,-7.634 25.377,-13.61c0.339,-0.211 25.252,-6.473 26.475,-6.774c33.583,-8.27 34.092,-2.999 49.375,-4.604c20.469,-2.149 20.44,-0.488 41.034,-0.56c5.739,-0.02 8.798,-3.158 23.694,-0.094c3.582,0.737 3.745,-0.941 45.142,7.236c1.872,0.37 1.937,-0.294 23.638,3.185c4.685,0.751 4.402,1.733 9.193,2.186c4.792,0.454 4.756,0.466 9.174,2.343c4.078,1.733 4.342,0.75 8.465,2.524c2.065,0.888 3.233,-0.856 12.352,4.113c5.825,3.174 18.777,2.405 27.725,7.22c4.781,2.572 12.756,2.36 17.324,4.239c19.484,8.014 24.804,3.733 41.106,10.091c1.332,0.52 1.421,0.14 17.367,4.219c10.629,2.719 28.703,4.179 30.744,3.559c8.937,-2.713 9.036,-0.724 21.566,1.489c26.453,4.672 28.132,-2.994 42.109,0.132c7.109,1.59 6.972,-1.455 14.311,-1.379c6.347,0.065 6.039,-1.97 12.335,-2.126c12.6,-0.311 12.427,-1.164 24.71,-4.059c2.176,-0.513 2.092,-0.738 26.615,-8.512c12.739,-4.038 12.543,-9.672 7.078,-10.874c-14.155,-3.113 -17.255,3.801 -25.595,4.386c-10.183,0.714 -9.714,3.644 -30.771,4.933c-4.665,0.286 -11.407,1.945 -14.377,1.613c-22.003,-2.458 -21.991,1.093 -45.173,0.177c-26.842,-1.061 -26.523,-4.387 -53.372,-4.562c-8.93,-0.058 -8.171,-4.09 -20.544,-4.633c-1.532,-0.067 -9.702,-3.493 -23.686,-7.206c-6.17,-1.638 -5.925,-2.781 -12.25,-2.798c-7.167,-0.019 -10.781,-8.021 -26.693,-8.276c-10.432,-0.167 -13.45,-4.782 -17.497,-5.285c-0.042,-0.005 -7.835,-2.313 -14.369,-3.134c-2.67,-0.336 -2.054,-2.734 -32.781,-7.552c-7.012,-1.1 -7.728,-3.748 -19.439,-6.487c-9.678,-2.264 -9.584,-3.074 -19.568,-2.549c-7.978,0.42 -7.843,-0.661 -21.543,-2.355c-4.258,-0.527 -4.166,-0.716 -8.208,-1.973c-0.481,-0.15 -60.126,-1.127 -75.025,0.78c-12.269,1.571 -12.412,-2.02 -24.571,0.359c-3.621,0.708 -11.173,-0.139 -4.93,-3.802c9.036,-5.301 8.565,-5.879 17.413,-11.347c0.03,-0.018 10.059,-4.204 18.213,-7.699c2.826,-1.211 21.737,-6.31 35.053,-8.555c3.803,-0.641 11.426,-3.207 21.505,-2.964c13.824,0.333 18.125,-3.903 37.96,-1.41c0.175,0.022 20.135,-0.844 20.624,-0.954c10.273,-2.322 10.098,1.093 20.503,2.433c15.949,2.054 16.025,1.997 17.165,2.794c9.925,6.94 11.83,0.853 23.023,5.309c6.28,2.499 6.497,1.492 10.121,2.323c10.987,2.518 10.231,5.231 21.516,6.26c5.328,0.486 21.765,9.922 65.789,18.156c10.842,2.028 10.973,0.977 21.56,4.143c1.932,0.578 39.478,4.434 50.108,6.963c3.178,0.756 83.987,2.353 91.566,0.008c33.362,-10.322 39.424,-9.028 49.268,-15.632c7.894,-5.295 13.021,-4.359 15.946,-9.604c1.222,-2.191 1.345,-2.102 17.06,-26.318c0.566,-0.872 9.737,-9.877 -0.205,-8.084c-4.114,0.742 -12.264,6.754 -25.628,10.306c-15.704,4.175 -14.95,9.027 -49.365,9.048c-19.089,0.011 -33.072,-0.162 -39.086,-1.701c-2.701,-0.691 -13.107,0.198 -20.545,-1.02c-8.561,-1.402 -16.869,4.815 -51.278,-4.502c-0.827,-0.224 -0.771,-0.358 -10.29,-2.969c-6.677,-1.832 -6.391,-3.362 -13.246,-2.912c-5.529,0.363 -13.373,-3.027 -14.431,-3.065c-11.976,-0.427 -11.899,-0.177 -23.642,-1.994c-2.713,-0.42 -8.389,0.712 -16.403,-1.336c-41.503,-10.606 -49.325,-11.382 -53.617,-14.133c-5.737,-3.676 -6.285,-1.701 -24.372,-2.38c-5.335,-0.2 -5.263,0.325 -66.73,0.258c-6.91,-0.007 -7.904,1.272 -15.4,1.21c-6.622,-0.055 -6.609,-0.173 -7.184,-0.168c-5.109,0.051 -9.716,4.586 -17.477,2.916c-1.668,-0.359 -12.404,-1.504 -4.155,-5.478c3.842,-1.851 4.329,-0.901 7.464,-3.722c2.579,-2.321 15.679,-3.526 25.672,-6.913c3.016,-1.022 3.746,0.142 21.416,-5.433c11.248,-3.549 11.465,-1.531 29.708,-1.494c11.312,0.023 11.247,-0.248 22.597,-0.035c12.207,0.228 14.158,-0.899 17.535,-0.134c9.319,2.11 15.947,-1.387 25.577,-0.727c9.22,0.632 9.173,0.845 17.433,-0.04c1.963,-0.21 1.924,0.547 24.659,0.914c3.398,0.055 7.72,3.424 12.369,2.806c16.867,-2.24 17.061,3.747 33.76,0.319c6.201,-1.273 32.176,-0.259 34.972,-0.15c4.59,0.179 9.12,3.223 18.465,2.952c6.369,-0.185 35.621,1.089 52.353,1.289c8.518,0.102 9.824,1.881 21.538,0.039c1.551,-0.244 9.264,0.05 15.367,-1.06c14.723,-2.679 21.159,1.032 42.054,-6.149c16.8,-5.774 17.199,-4.111 34.133,-9.506c15.129,-4.82 17.623,-5.995 28.462,-13.011c12.032,-7.789 3.617,-11.598 0.195,-10.758c-6.981,1.714 -6.827,1.928 -13.457,4.712c-8.418,3.535 -9.299,-0.035 -25.805,5.761c-11.093,3.895 -23.659,0.664 -38.77,6.784c-3.722,1.507 -9.552,0.578 -18.625,3.727c-27.56,9.565 -34.151,1.181 -64.548,5.67c-0.111,0.016 -25.253,1.117 -38.014,-1.427c-7.703,-1.535 -7.6,-1.777 -15.414,-1.549c-6.003,0.175 -5.859,-1.414 -15.374,-1.031c-10.34,0.417 -10.266,0.183 -20.563,0.458c-9.778,0.261 -9.7,0.663 -19.491,0.027c-10.809,-0.702 -10.752,0.229 -21.564,-0.031c-8.974,-0.216 -13.661,-5.451 -32.85,-4.913c-20.851,0.584 -25.413,-4.194 -37.905,-0.757c-1.039,0.286 -1.002,-0.903 -13.444,-0.837c-8.583,0.046 -8.595,-2.526 -18.407,-0.31c-1.061,0.24 -9.046,0.189 -10.508,0.236c-0.333,0.011 -2.791,-1.115 1.378,-3.261c7.087,-3.649 7.942,-1.057 15.136,-4.585c1.262,-0.619 1.367,-0.301 16.521,-5.959c5.813,-2.17 26.014,-0.009 37.937,-2.303c1.84,-0.354 21.91,-0.708 24.762,-0.049c3.993,0.922 3.975,-0.062 8.118,-0.106c16.485,-0.174 43.648,2.372 69.82,0.322c4.299,-0.337 6.757,1.111 13.385,0.364c1.705,-0.192 14.522,-1.638 21.452,0.06c5.25,1.287 5.277,-2.818 14.455,-1.414c17.231,2.636 60.256,-3.235 67.733,-2.855c17.506,0.891 43.966,-6.678 53.388,-6.684c13.629,-0.01 13.35,-1.645 32.865,-7.817c2.077,-0.657 3.325,-2.676 6.148,-2.726c8.223,-0.146 11.735,-3.865 25.598,-6.839c1.32,-0.283 17.82,-7.02 19.124,-8.403c0.434,-0.46 11.284,-15.227 -4.934,-6.18c-10.785,6.016 -16.945,3.877 -40.687,15.15c-6.755,3.207 -7.31,0.719 -14.448,2.972c-2.074,0.655 -2.206,-0.189 -26.698,5.13c-14.883,3.232 -31.619,1.854 -41.084,5.061c-1.975,0.669 -5.515,-2.218 -10.335,-1.429c-0.642,0.105 -7.735,3.284 -29.731,2.759c-7.935,-0.19 -7.933,-1.299 -29.776,0.405c-2.457,0.192 -2.378,-1.829 -30.788,-1.122c-10.803,0.269 -10.689,0.717 -21.565,0.764c-6.291,0.027 -19.848,-1.108 -21.571,-1.252c-1.669,-0.14 -1.439,-1.314 -15.382,-2.048c-4.506,-0.237 -20.776,0.209 -22.582,0.259c-6.238,0.171 -9.656,3.073 -17.559,0.999c-13.585,-3.565 -29.336,6.091 -25.272,-6.493c1.014,-3.14 3.351,2.504 40.743,-6.447c10.337,-2.474 36.823,-1.789 46.185,-4.137c4.925,-1.235 19.07,-0.058 27.877,-2.392c10.635,-2.818 15.946,-1.635 17.301,-1.333c6.07,1.352 11.648,-2.812 22.675,-1.609c5.546,0.605 8.517,-1.461 21.538,0.21c2.198,0.282 2.114,-0.856 27.697,-0.141c1.559,0.044 1.528,-0.113 19.495,-0.033c42.701,0.192 62.108,-7.94 81.068,-9.187c21.488,-1.413 20.454,-5.554 30.743,-8.227c3.853,-1.001 35.49,-12.761 39.759,-18.441c1.498,-1.993 8.02,-14.384 -1.718,-13.284c-10.521,1.188 -9.727,3.309 -31.029,16.222c-11.732,7.112 -28.509,8.286 -37.665,10.907c-10.257,2.936 -10.529,1.336 -20.736,4.443c-13.19,4.015 -14.297,2.136 -31.654,6.726c-3.392,0.897 -11.723,-0.595 -20.512,0.301c-6.374,0.65 -23.486,-0.526 -29.884,0.128c-6.097,0.623 -6.098,-0.269 -12.22,0.709c-2.353,0.376 -2.322,-1.869 -29.78,0.119c-2.623,0.19 -2.588,-0.34 -32.869,-0.468c-14.947,-0.063 -14.761,2.211 -29.77,2.268c-22.764,0.086 -22.616,2.737 -27.727,2.157c-15.231,-1.728 -14.93,2.749 -33.844,3.322c-9.56,0.29 -17.108,6.138 -27.825,7.38c-1.938,0.225 -9.662,1.119 -23.395,6.9c-3.619,1.523 -5.729,4.228 -13.5,4.019c-9.899,-0.267 12.795,-9.973 23.319,-18.085c5.909,-4.555 6.442,-3.614 12.699,-7.707c0.229,-0.15 12.151,-4.127 13.209,-4.481c2.69,-0.898 3.108,0.691 21.4,-6.403c10.031,-3.89 10.058,-3.696 20.826,-4.25c1.018,-0.052 0.641,-1.368 12.189,-3.716c6.011,-1.222 8.628,0.121 15.424,-1.899c6.927,-2.058 11.97,1.788 34.998,-1.453c3.773,-0.531 76.012,0.599 88.246,-0.141c24.31,-1.47 24.49,1 35.993,-2.002c7.089,-1.851 7.782,1.58 24.531,-4.574c20.696,-7.605 32.075,-7.715 34.938,-7.743c6.214,-0.06 36.145,-14.357 47.12,-18.137c4.461,-1.536 3.492,-2.938 7.491,-5.552c16.414,-10.731 17.033,-9.784 31.988,-22.453c3.391,-2.872 3.051,-3.109 6.128,-6.28c1.517,-1.563 12.911,-6.905 12.533,15.069c-0.45,26.146 -0.281,31.756 1.371,45.182c0.026,0.214 -1.22,13.136 -1.242,13.242c-1.235,5.874 -2.631,5.468 -3.443,12.456c-0.059,0.509 -11.248,28.989 -14.107,33.535c-6.078,9.663 -5.317,13.645 -12.231,24.721c-1.323,2.12 -0.519,2.472 -13.663,28.093c-2.11,4.112 -3.399,14.047 -12.722,23.399c-8.261,8.287 -5.251,10.233 -11.77,19.877c-6.963,10.3 -9.127,20.973 -15.752,28.54c-1.461,1.668 -16.195,23.399 -16.79,26.527c-1.859,9.783 -3.945,9.035 -6.872,18.549c-2.614,8.496 -9.975,17.236 -10.5,33.841c-0.042,1.324 -0.895,1.164 -2.196,16.406c-0.646,7.562 1.887,7.34 1.697,15.437c-0.132,5.64 1.074,5.539 4.848,6.9c6.249,2.254 13.355,9.48 31.936,21.474c12.771,8.244 20.628,20.683 20.863,12.671c0.023,-0.785 -1.382,-3.557 -0.753,-6.206c0.284,-1.195 1.048,-4.412 0.804,-15.334c-0.139,-6.244 -5.291,-7.463 0.417,-21.577c0.844,-2.087 5.154,-20.451 6.827,-23.797c3.048,-6.095 1.159,-6.665 3.791,-12.996c10.691,-25.713 21.995,-36.875 32.744,-67.83c11.492,-33.095 23.53,-51.018 27.317,-69.927c0.454,-2.269 1.716,-1.859 8.704,-27.585c4.42,-16.274 5.303,-15.92 8.438,-26.886c1.972,-6.899 3.956,-50.514 0.193,-60.361c-1.684,-4.407 -0.157,-10.909 -4.536,-18.761c-1.814,-3.253 -2.233,-10.076 -6.686,-19.23c-0.387,-0.795 -4.864,-9.998 -3.08,-10.608c1.445,-0.494 18.223,5.244 33.673,24.186c11.827,14.499 11.006,14.979 19.55,31.668c0.284,0.555 -0.147,0.727 3.069,7.163c0.337,0.675 -0.62,0.807 1.92,9.228c5.948,19.717 -1.471,44.105 1.849,59.334c1.052,4.827 -2.751,35.22 -11.372,49.472c-3.342,5.526 0.889,6.886 -3.925,15.497c-4.5,8.05 -0.096,10.056 -10.038,24.12c-8.013,11.334 -0.601,17.314 -13.67,37.444c-8.53,13.139 -6.569,14.012 -8.464,17.29c-0.735,1.272 -0.067,1.525 -7.995,16.535c-0.637,1.206 -4.931,9.336 -5.121,16.263c-0.114,4.17 0.462,4.149 -0.637,8.116c-0.369,1.333 -0.445,4.582 -0.67,5.245c-12.243,36.073 -10.919,39.071 -9.153,50.286c0.192,1.217 -1.501,1.22 -0.045,15.403c0.342,3.329 -6.456,31.33 14.737,61.305c0.388,0.548 7.673,10.852 8.356,-0.763c1.262,-21.453 -6.331,-40.608 4.656,-68.716c0.488,-1.249 -1.036,-1.515 2.736,-16.533c1.417,-5.641 5.217,-9.784 8.747,-25.511c3.368,-15.011 6.242,-15.954 20.532,-58.477c7.114,-21.168 8.358,-20.794 9.615,-31.983c0.248,-2.208 4.207,-10.27 5.118,-13.417c1.048,-3.62 0.834,-3.591 1.927,-7.214c5.486,-18.175 5.731,-18.08 5.827,-20.382c0.133,-3.191 2.382,-3.864 3.428,-13.398c2.064,-18.818 0.108,-18.855 1.616,-32.791c0.41,-4.392 1.553,-4.058 2.075,-7.185c0.197,-1.178 0.005,-1.15 -1.406,-8.132c-0.838,-6.619 -0.508,-35.504 -0.036,-39.138c1.254,-9.662 -0.097,-9.632 -4.308,-35.821c-0.641,-3.99 -2.432,-5.66 0.505,-5.519c0.565,0.027 0.185,0.85 6.663,2.365Z" style="fill:#021a21;"/><path d="M834.082,699.088l-32.85,0c0.087,-2.142 0.443,-2.173 -0.309,-3.417c-0.723,-1.195 -0.816,-1.09 -1.264,-2.394c-6.698,-19.485 -9.898,-17.633 -25.543,-37.484c-11.884,-15.079 -15.2,-11.121 -30.015,-23.316c-14.837,-12.212 -15.085,-11.72 -30.818,-22.649c-23.479,-16.311 -27.938,-11.184 -38.98,-18.515c-3.174,-2.107 -3.745,-0.376 -22.006,-6.402c-16.381,-5.405 -16.527,-4.686 -26.679,-5.932c-8.609,-1.056 -8.59,-6.796 -13.006,-3.209c-9.113,7.402 -14.801,5.761 -17.324,9.179c-4.033,5.462 16.701,1.43 25.071,5.286c11.562,5.327 12.438,2.903 23.931,8.487c14.246,6.921 14.465,6.183 22.3,9.845c29.846,13.948 29.551,18.475 36.247,21.968c12.738,6.644 11.213,9.193 24.375,14.88c6.073,2.625 17.709,20.496 18.273,21.507c4.372,7.828 20.068,16.598 24.116,30.543c0.152,0.523 -0.345,1.099 -0.193,1.622l-50.302,0c-0.111,-0.505 -1,-4.567 -3.044,-5.698c-5.559,-3.076 -5.216,-3.495 -8.571,-8.987c-4.666,-7.637 -17.818,-18.222 -22.258,-19.714c-8.348,-2.805 -6.673,-5.476 -15.298,-10.442c-1.856,-1.069 -17.773,-10.233 -22.804,-14.033c-11.461,-8.656 -18.344,-7.546 -23.2,-10.862c-7.089,-4.84 -7.841,-3.048 -15.84,-6.304c-7.17,-2.919 -10.649,-2.108 -14.303,-3.319c-12.054,-3.996 -12.407,-2.414 -24.665,-5.934c-10.401,-2.987 -11.432,-1.588 -17.432,-0.817c-13.058,1.677 -16.9,2.846 -15.428,-0.691c0.769,-1.847 11.726,-9.959 12.801,-10.754c6.421,-4.753 -0.004,-4.737 -0.378,-4.691c-5.631,0.694 -5.535,-0.522 -11.282,-0.59c-1.041,-0.012 -2.083,0.075 -3.122,0.026c-1.009,-0.047 -3.215,-1.541 -5.081,-1.32c-7.072,0.838 -7.925,-1.717 -18.486,-3.173c-13.581,-1.873 -16.56,-4.905 -23.709,-6.856c-15.043,-4.105 -14.941,-4.399 -16.268,-4.667c-4.778,-0.964 -4.587,-1.265 -9.278,-2.879c-5.434,-1.871 -5.024,-2.65 -10.425,-4.734c-7.376,-2.846 -7.663,-2.065 -14.531,-6.002c-6.497,-3.724 -7.517,-1.209 -18.098,-6.829c-30.006,-15.94 -31.99,-11.501 -39.924,-16.596c-5.095,-3.272 -4.75,-3.901 -10.54,-5.53c-11.323,-3.185 -9.581,-6.861 -16.293,-8.718c-6.646,-1.838 -5.663,-4.395 -10.334,-4.755c-11.794,-0.911 -14.923,-5.414 -25.579,-9.591c-13.776,-5.4 -13.408,-7.069 -22.652,-7.14c-6.913,-0.053 -34.561,-15.111 -63.657,-14.405c-49.103,1.191 -49.126,-0.102 -53.322,0.666c-14.181,2.594 -14.248,0.12 -30.844,0.932c-9.859,0.482 -0.11,-6.173 0.604,-6.934c10.76,-11.468 14.205,-7.44 21.699,-12.317c10.695,-6.959 22.312,0.755 46.358,-8.131c1.745,-0.645 34.851,0.015 35.068,0.061c4.032,0.859 4.076,1.038 23.559,-0.7c1.471,-0.131 4.281,1.593 6.143,2.039c12.293,2.945 12.393,2.417 13.444,2.734c14.588,4.388 23.827,2.189 26.662,3.195c15.38,5.458 42.605,6.196 48.243,9.304c12.439,6.858 24.176,3.943 31.982,7.864c9.969,5.007 12.499,2.28 21.074,7.114c4.088,2.304 8.449,-0.413 12.525,2.648c6.597,4.955 9.047,1.651 20.403,7.518c7.937,4.101 8.44,2.26 14.433,4.111c14.168,4.374 14.807,3.021 29.94,6.64c5.067,1.212 5.069,0.873 10.184,1.632c17.69,2.627 18.161,2.831 19.624,3.464c5.314,2.301 5.646,0.698 11.091,2.548c12.208,4.149 13.755,1.053 20.699,2.575c10.528,2.307 11.492,0.252 17.433,2.179c13.14,4.263 19.851,1.767 29.637,5.464c4.364,1.649 9.473,-0.346 14.541,0.405c11.059,1.639 25.934,0.465 29.737,1.255c8.156,1.693 8.113,1.536 16.398,2.213c8.469,0.692 -2.131,8.331 -2.381,11.211c-0.473,5.459 10.05,3.703 10.599,3.694c9.942,-0.159 36.624,13.408 39.781,15.205c6.476,3.688 6.698,3.084 13.521,5.955c2.606,1.097 4.63,3.627 5.192,3.951c10.369,5.978 10.22,6.207 13.271,7.409c9.671,3.812 8.37,5.751 13.785,9.56c6.574,4.624 5.765,5.553 12.342,10.232c21.487,15.286 16.633,19.905 34.227,38.733c9.485,10.151 5.801,12.637 14.741,23.289c3.635,4.331 12.653,21.768 12.257,28.286Z" style="fill:#021a21;"/><path d="M0,588.734l0,-40.036c2.901,-1.417 11.235,-5.488 25.921,-30.938c0.808,-1.4 11.067,-22.49 11.58,-26.544c1.577,-12.465 1.358,-12.42 4.476,-24.569c0.218,-0.851 0.635,-24.927 0.323,-29.819c-0.603,-9.45 0.245,-29.319 -3.958,-42.062c-2.197,-6.661 -1.124,-17.81 -9.11,-38.024c-2.233,-5.651 -1.163,-5.957 -3.589,-11.534c-3.477,-7.992 1.114,-11.417 -14.98,-27.359c-3.828,-3.792 -9.733,-5.06 -10.663,-5.26l0,-46.195c3.034,-0.37 40.156,0.874 49.878,-0.714c11.3,-1.846 11.41,-0.812 22.46,-3.526c1.784,-0.438 1.956,0.536 22.554,-4.294c2.599,-0.609 20.163,0.279 34.949,-2.864c6.497,-1.381 6.943,0.036 12.633,-3.489c8.067,-4.996 17.316,-2.747 31.703,-10.431c12.409,-6.628 12.979,-5.318 25.312,-11.958c5.769,-3.106 9.281,-2.194 10.833,9.529c1.22,9.219 -0.479,9.188 0.165,18.549c0.882,12.825 -0.101,12.853 1.833,25.572c0.15,0.983 -0.072,0.916 -0.962,12.396c-0.136,1.752 -0.512,1.671 -3.996,21.596c-4.65,26.595 -8.409,26.6 -8.622,47.16c-0.055,5.35 -4.844,9.013 -7.24,19.511c-2.292,10.043 -13.048,26.981 -21.142,48.409c-0.755,1.998 -2.047,5.419 -12.405,23.644c-7.679,13.511 -11.491,9.825 -24.213,22.142c-14.946,14.469 -15.394,14.544 -17.186,14.84c-8.85,1.466 7.664,-20.569 8.805,-22.091c11.918,-15.903 11.335,-26.134 17.996,-36.549c0.693,-1.084 0.459,-1.08 6.724,-14.613c0.545,-1.177 -0.576,-1.514 5.125,-15.387c3.463,-8.427 -0.36,-12.367 4.572,-24.457c0.512,-1.254 -0.312,-1.475 4.339,-16.368c0.346,-1.109 -1.348,-1.343 1.958,-14.397c2.528,-9.985 -0.412,-31.509 0.154,-51.411c0.358,-12.607 -16.292,-0.126 -28.148,0.17c-1.085,0.027 -9.877,-0.854 -9.876,1.864c0.001,1.814 1.069,1.663 2.128,22.578c0.758,14.973 0.56,14.901 -0.033,29.805c-0.892,22.424 3.268,24.851 -2.951,48.122c-2.938,10.995 3.034,14.747 -6.186,43.078c-3.941,12.109 0.574,15.41 -9.161,27.561c-13.116,16.372 -9.135,23.775 -21.255,37.171c-3.241,3.582 -4.064,2.723 -9.728,10.69c-8.595,12.091 -34.514,30.646 -48.987,48.701c-3.26,4.067 -4.749,2.684 -7.65,5.637c-7.195,7.322 -7.981,6.246 -16.074,12.627c-3.906,3.08 -4.745,3.336 -8.307,3.539Z" style="fill:#021821;"/><path d="M0,242.782l0,-43.116c5.728,-0.287 5.702,-0.237 6.595,-0.4c3.417,-0.627 2.526,-2.992 11.371,-4.727c27.014,-5.296 26.476,-7.31 28.826,-7.735c19.027,-3.442 26.037,-5.811 28.602,-5.982c24.676,-1.646 24.61,-2.065 26.757,-2.093c8.287,-0.109 8.147,-0.864 16.414,-1.671c8.927,-0.871 8.449,-3.355 17.453,-3.576c3.211,-0.079 3.08,-0.546 6.231,-1.153c1.633,-0.315 19.494,-3.755 20.427,-3.852c18.149,-1.885 17.607,-5.326 34.94,-5.66c1.605,-0.031 6.586,-1.475 7.143,-1.508c1.368,-0.082 2.744,-0.007 4.109,-0.128c10.923,-0.964 26.835,-7.727 28.775,-7.815c17.417,-0.79 24.157,-9.531 33.928,-12.033c16.855,-4.315 15.93,-6.974 17.428,-6.904c1.321,0.061 -0.07,4.264 -0.186,4.615c-1.992,6.02 0.383,33.128 0.608,60.622c0.118,14.408 -1.355,14.281 -1.386,28.741c-0.014,6.654 -3.585,12.821 -2.662,21.494c0.996,9.355 -1.194,9.207 -1.095,18.537c0.173,16.449 -2.822,16.015 -3.869,27.68c-1.539,17.145 -6.018,22.536 -8.643,36.029c-2.593,13.323 -3.97,12.853 -8.273,25.673c-11.101,33.075 -40.622,65.973 -42.457,67.442c-8.164,6.536 -23.098,25.263 -33.72,24.018c-5.969,-0.7 12.597,-29.145 14.003,-31.212c6.98,-10.264 9.164,-18.298 11.063,-21.047c6.644,-9.623 2.828,-10.84 4.432,-15.74c1.625,-4.962 0.492,-5.235 2.779,-9.96c6.45,-13.325 6.568,-23.833 11.221,-36.02c3.615,-9.469 2.459,-9.709 4.596,-19.674c2.841,-13.251 2.642,-13.281 2.972,-14.411c5.338,-18.246 4.017,-19.083 4.164,-21.493c1.152,-18.971 0.271,-18.914 0.071,-37.965c-0.041,-3.87 -0.508,-48.197 -0.572,-48.371c-2.164,-5.926 -14.241,4.276 -14.992,4.772c-20.943,13.828 -46.421,14.972 -47.978,15.759c-7.589,3.838 -8.82,3.783 -33.822,2.239c-5.071,-0.313 -27.458,1.819 -29.864,2.729c-17.328,6.552 -18.942,1.85 -34.645,6.869c-11.912,3.807 -12.673,-0.074 -22.729,3.719c-13.298,5.017 -14.365,0.944 -24.526,5.424c-7.893,3.479 -29.923,8.097 -33.49,7.884Z" style="fill:#021a21;"/><path d="M0,181.188l0,-39.009c12.075,-2.458 12.068,-8.44 26.265,-10.796c9.976,-1.655 13.017,-7.336 23.477,-9.065c6.489,-1.073 9.615,-4.813 23.676,-7.765c10.445,-2.192 9.888,-4.505 20.54,-4.974c6.302,-0.278 10.909,-4.597 32.839,-7.243c26.476,-3.194 26.064,-5.354 35.9,-6.474c1.643,-0.187 1.606,0.59 20.614,-1.537c22.792,-2.551 22.645,-3.24 37.912,-3.641c5.361,-0.141 17.909,-0.471 65.8,-12.804c1.456,-0.375 39.573,-20.86 48.751,-28.576c0.377,-0.317 11.379,-11.294 10.297,-2.647c-1.108,8.852 -1.85,8.664 -2.793,17.488c-0.492,4.603 -3.728,11.124 -3.591,23.619c0.134,12.207 -2.406,85.388 0.81,99.547c1.021,4.497 -3.539,10.523 -1.619,25.748c1.627,12.907 -1.943,12.951 1.413,58.467c0.852,11.554 -11.688,38.225 -16.998,46.495c-0.629,0.98 -7.664,16.865 -21.282,32.26c-3.902,4.412 -5.229,2.882 -6.743,5.491c-2.082,3.587 -1.536,5.864 -5.394,4.279c-5.449,-2.238 2.271,-15.889 3.317,-24.858c0.04,-0.34 23.909,-48.128 17.97,-89.288c-1.044,-7.239 0.521,-7.238 -1.383,-91.416c-0.153,-6.758 -0.744,-6.695 -0.694,-19.508c0.022,-5.694 0.677,-5.601 0.632,-11.282c-0.065,-8.248 -1.432,-8.2 -0.013,-16.398c2.429,-14.034 -7.804,-0.21 -13.533,2.033c-9.312,3.645 -9.04,4.263 -18.567,6.862c-23.527,6.419 -30.716,12.128 -41.998,12.036c-9.322,-0.076 -8.99,3.16 -26.692,3.309c-12.439,0.104 -12.159,2.724 -24.643,2.571c-18.567,-0.227 -18.139,2.914 -22.535,3.273c-18.599,1.518 -18.301,3.652 -23.663,3.619c-9.55,-0.059 -9.566,-0.069 -18.444,3.296c-5.492,2.081 -19.972,1.746 -31.717,6.475c-6.285,2.531 -11.246,2.97 -18.715,5.48c-8.782,2.951 -9.443,0.705 -17.515,5.125c-1.145,0.627 -42.382,19.123 -48.102,19.406c-1.877,0.093 -1.776,0.199 -3.576,0.401Z" style="fill:#021a21;"/><path d="M691.39,699.088l-70.833,0c-1.41,-3.442 -1.358,-3.821 -11.038,-9.142c-8.845,-4.861 -9.406,-3.902 -17.109,-10.365c-4.845,-4.066 -12.807,-6.132 -14,-6.441c-4.059,-1.053 -2.1,-5.728 -48.299,-20.372c-2.97,-0.942 -5.962,-0.25 -8.203,-1.168c-16.471,-6.748 -17.048,-3.749 -35.855,-4.914c-19.598,-1.214 -19.487,3.327 -38.968,1.421c-0.537,-0.053 -24.442,-1.103 -26.702,-0.813c-7.577,0.971 -15.612,8.278 -51.235,-9.497c-1.774,-0.885 -1.557,-1.233 -21.876,-11.653c-19.788,-10.148 -18.018,-12.769 -44.62,-31.688c-9.579,-6.813 -7.427,-9.394 -21.09,-17.67c-24.408,-14.785 -23.285,-20.025 -39.788,-26.084c-4.419,-1.623 -12.639,-7.767 -27.682,-11.436c-1.237,-0.302 -5.244,0.072 -8.179,-1.067c-11.608,-4.508 -56.874,-16.311 -78.099,-14.058c-11.018,1.17 -16.328,-1.197 -17.622,-1.774c-1.009,-0.45 -7.378,-2.31 -1.658,-4.995c8.484,-3.982 8.054,-5.281 17.298,-6.292c4.546,-0.497 4.06,-4.133 31.746,-3.437c14.208,0.357 14.222,0.194 15.524,0.603c8.234,2.583 33.399,0.626 39.014,3.221c5.294,2.446 6.106,-0.437 12.396,2.965c4.331,2.343 28.497,3.744 38.617,8.974c10.709,5.535 12.008,2.685 22.05,9.439c5.384,3.621 6.607,1.29 15.18,7.522c7.543,5.483 8.284,4.242 15.429,10.241c20.164,16.932 28.68,15.036 36.401,26.128c3.236,4.649 5.262,2.124 8.463,5.031c6.639,6.031 6.393,6.265 14.337,10.471c4.341,2.298 3.047,4.254 10.371,7.071c13.1,5.038 11.62,7.959 24.799,12.905c17.053,6.399 16.476,7.551 33.623,13.932c6.076,2.261 5.814,4.477 29.963,4.348c18.944,-0.102 18.408,-3.019 26.794,-6.619c0.459,-0.197 20.514,-1.57 26.625,-0.436c13.297,2.469 18.857,-1.959 38.895,3.55c11.567,3.181 51.029,14.842 59.558,21.378c11.611,8.897 13.521,5.896 24.858,15.123c8.577,6.98 22.634,15.131 29.763,23.672c1.536,1.84 8.246,6.381 11.152,11.929Z" style="fill:#021a21;"/><path d="M267.42,0l95.47,0c-10.298,15.227 -14.663,10.552 -26.554,22.211c-1.776,1.742 -14.65,14.365 -25.783,17.38c-10.554,2.858 -9.677,5.571 -20.55,7.113c-4.954,0.703 -4.524,1.796 -8.15,3.225c-11.572,4.562 -12.008,2.876 -23.772,6.669c-30.501,9.835 -55.329,4.61 -76.853,10.764c-3.628,1.037 -6.374,-1.111 -8.181,-0.661c-6.766,1.685 -32.131,3.75 -34.935,3.979c-6.439,0.524 -8.358,2.476 -12.287,3.085c-13.192,2.042 -12.631,4.251 -25.798,6.551c-8.865,1.549 -8.784,1.635 -17.267,4.684c-1.392,0.501 -11.694,4.204 -17.378,6.331c-19.151,7.167 -47.803,21.05 -49.418,21.354c-8.395,1.58 -7.45,6.059 -15.963,4.857l0,-44.142c10.019,1.204 18.782,-4.611 36.407,-11.409c8.811,-3.398 9.496,-1.504 27.634,-10.42c14.944,-7.346 15.749,-4.713 53.444,-15.346c4.224,-1.192 4.482,-0.001 9.545,-2.388c7.352,-3.467 11.863,0.86 58.128,-13.283c6.18,-1.889 6.09,-2.154 15.551,-2.292c1.191,-0.017 26.369,-7.156 28.655,-7.804c6.597,-1.871 6.594,-1.598 13.419,-1.643c2.651,-0.018 2.567,-0.301 10.245,-2.223c7.293,-1.826 11.501,-1.861 14.392,-6.591Z" style="fill:#021c25;"/><path d="M952.137,0l62.62,0c3.576,14.286 10.434,21.12 11.878,22.56c10.592,10.556 9.952,17.559 24.563,26.202l0,62.62c-23.797,-1.231 -31.14,0.824 -38.934,-11.013c-5.216,-7.921 -7.689,-5.781 -12.605,-13.797c-15.657,-25.53 -18.863,-24.063 -24.081,-43.93c-3.58,-13.633 -10.438,0.116 -17.587,11.054c-10.288,15.742 -14.033,12.9 -24.013,22.115c-18.919,17.469 -51.59,34.302 -64.217,40.203c-25.611,11.968 -28.749,11.259 -31.474,12.122c-5.045,1.597 -4.978,1.6 -10.309,2.199c-8.855,0.995 -16.116,7.155 -29.827,7.148c-13.115,-0.007 -12.761,2.12 -25.744,4.298c-19.998,3.355 -19.701,4.564 -21.441,4.813c-12.395,1.771 -12.139,3.666 -24.645,3.332c-17.2,-0.459 -17.036,-1.392 -18.522,-1.416c-12.768,-0.211 2.369,-5.458 8.16,-6.842c4.748,-1.135 5.002,-4.069 11.275,-5.117c18.823,-3.144 20.848,-3.17 22.68,-3.194c4.916,-0.064 32.391,-12.294 33.703,-13.042c7.415,-4.229 15.938,-4.643 27.124,-11.579c18.872,-11.701 40.6,-17.823 43.452,-20.382c5.216,-4.681 5.942,-3.583 10.396,-7.107c9.709,-7.68 10.464,-6.316 18.47,-11.382c2.295,-1.453 18.3,-14.14 18.405,-14.253c4.676,-4.995 5.315,-4.112 12.371,-9.329c9.565,-7.073 35.51,-35.5 38.302,-46.282Z" style="fill:#021e26;"/><path d="M461.44,0l58.514,0c-1.329,14.889 -4.839,16.76 -5.3,31.307c-0.247,7.794 -0.63,7.687 -2.103,15.361c-0.83,4.322 1.069,36.684 -2.215,56.444c-0.297,1.785 0.713,1.834 -1.021,22.593c-0.942,11.277 0.792,11.289 -1.007,22.565c-1.446,9.058 3.351,17.979 -0.537,35.009c-1.983,8.685 0.253,9.15 -3.395,17.325c-18.524,41.509 -34.459,43.337 -53.305,62.603c-2.609,2.667 -9.137,0.495 -2.563,-13.042c13.889,-28.599 15.603,-50.768 19.462,-63.73c4.28,-14.376 1.831,-34.106 1.466,-37.05c-0.264,-2.129 0.868,-4.927 0.757,-6.149c-0.192,-2.121 -1.725,-19.109 -0.212,-26.621c1.78,-8.834 -2.827,-11.674 -2.799,-30.895c0.04,-27.887 -4.245,-27.521 -5.005,-55.441c-0.348,-12.779 1.993,-12.789 0.684,-18.57c-1.318,-5.819 -0.732,-5.806 -1.421,-11.71Z" style="fill:#022027;"/><path d="M774.525,159.037c7.242,-0.501 7.064,-1.363 14.354,-1.941c18.531,-1.471 17.162,-8.032 39.043,-9.799c6.107,-0.493 9.199,-5.137 14.353,-5.401c1.667,-0.085 7.835,-0.401 20.447,-4.173c4.688,-1.402 4.469,-1.917 9.341,-2.735c1.947,-0.327 1.678,-1.119 23.495,-7.543c10.08,-2.968 10.283,-2.487 18.913,-8.41c6.262,-4.298 6.934,-2.998 22.397,-11.499c4.911,-2.7 5.463,-1.252 10.339,-4.017c5.369,-3.045 6.952,-0.964 11.686,-7.842c7.036,-10.222 6.05,-10.715 10.009,-19.026c4.962,-10.416 7.929,-1.199 10.436,2.573c10.27,15.448 13.956,22.878 7.708,23.063c-3.779,0.111 -13.987,-1.619 -18.178,2.261c-20.077,18.583 -18.05,20.875 -23.115,23.923c-17.487,10.523 -33.178,25.849 -54.094,30.515c-6.446,1.438 -5.122,4.92 -12.363,7.933c-24.264,10.098 -25.784,5.986 -36.11,11.973c-4.922,2.854 -31.337,4.03 -42.949,7.532c-14.886,4.49 -15.918,-2.854 -35.921,3.109c-9.921,2.958 -10.383,-0.702 -29.786,3.1c-12.678,2.484 -43.03,-2.213 -63.613,1.153c-10.994,1.798 -22.622,-0.45 -30.077,3.358c-1.457,0.745 -3.458,1.766 -20.257,2.853c-1.159,0.075 -15.417,2.094 -12.337,-3.403c2.107,-3.761 4.358,0.577 16.287,-5.403c49.099,-24.617 60.981,-19.067 84.332,-22.157c7.334,-0.971 7.608,0.925 25.518,-4.636c17.737,-5.508 18.284,-1.954 34.964,-5.034c0.408,-0.075 0.383,-0.024 5.176,-0.325Z" style="fill:#011720;"/><path d="M280.765,699.088l-54.408,0c0.207,-0.456 -0.078,-1.039 0.128,-1.495c1.583,-3.492 6.732,-3.949 13.588,-14.168c10.086,-15.032 10.843,-14.461 11.632,-15.82c7.747,-13.344 11.777,-11.309 13.162,-21.434c0.876,-6.407 1.884,-6.07 3.125,-12.327c0.758,-3.824 -2.171,-5.573 4.681,-10.08c3.229,-2.124 -8.075,-7.853 -8.452,-7.96c-10.033,-2.834 -8.846,-5.247 -18.52,-9.217c-25.048,-10.278 -24.487,-11.47 -26.714,-12.222c-5.361,-1.81 -5.487,-1.303 -11.861,-5.077c-8.508,-5.037 -9.983,-1.745 -30.957,-13.067c-13.648,-7.368 -14.364,-5.121 -23.817,-7.616c-17.966,-4.741 -32.413,-2.988 -40.071,-6.291c-10.979,-4.735 -34.099,0.878 -40.974,-1.16c-1.793,-0.532 -9.032,-5.232 11.571,-20.318c8.144,-5.963 8.984,-3.848 17.247,-5.269c11.881,-2.044 11.827,0.606 17.395,0.453c1.028,-0.028 2.052,-0.179 3.081,-0.182c4.421,-0.01 7.346,3.99 11.329,4.236c14.552,0.901 44.717,6.152 50.642,10.187c7.434,5.062 8.501,2.844 16.184,7.465c4.58,2.755 5.543,0.128 21.561,7.101c4.083,1.778 5.476,2.384 47.896,28.366c8.926,5.467 12.269,12.229 15.704,14.951c6.88,5.452 7.026,5.195 12.767,11.864c8.441,9.805 6.567,12.855 17.818,15.391c2.19,0.494 3.071,4.942 -3.362,14.637c-11.618,17.509 -11.465,17.593 -12.557,19.056c-12.404,16.615 -10.864,17.573 -11.939,19.012c-3.86,5.165 -5.358,4.518 -5.879,10.982Z" style="fill:#031b24;"/><path d="M417.298,0l23.611,0c0.171,5.938 -1.243,5.934 0.179,11.749c1.862,7.616 -0.471,58 3.512,89.429c1.04,8.201 0.088,8.253 1.789,16.3c0.324,1.533 -0.384,1.555 0.614,19.571c0.519,9.362 -2.821,10.604 -1.211,32.861c0.913,12.625 0.661,12.612 -3.667,32.88c-1.364,6.385 -3.144,5.803 -5.844,17.505c-2.589,11.224 -0.603,12.599 -12.131,32.561c-3.338,5.781 -2.445,6.218 -7.462,13.801c-2.473,3.737 -1.503,9.228 -9.744,12.888c-4.325,1.921 -2.785,-6.085 -2.16,-8.082c2.045,-6.53 -0.244,-6.844 1.795,-13.423c3.098,-9.999 -0.584,-12.365 0.071,-45.052c0.229,-11.448 -2.411,-11.409 -0.581,-21.523c0.456,-2.518 0.145,-7.776 0.214,-15.412c0.074,-8.196 -3.226,-8.939 -1.048,-28.71c0.837,-7.598 -2.02,-7.69 0.124,-18.444c0.702,-3.519 -1.219,-15.914 -0.627,-18.594c3.099,-14.045 -0.539,-16.487 3.5,-31.725c1.495,-5.642 -1.059,-10.404 2.77,-28.822c3.489,-16.784 0.289,-17.238 4.485,-33.796c0.266,-1.05 -0.644,-1.115 1.619,-13.442c0.237,-1.29 0.092,-1.211 0.19,-2.519Z" style="fill:#021a22;"/><path d="M380.341,0l20.531,0c1.902,25.459 -6.39,24.34 -6.52,35.398c-0.159,13.536 -2.186,13.257 -3.234,26.771c-2.155,27.796 -7.645,37.282 -7.275,40.98c1.966,19.637 -1.565,21.323 1.874,34.858c0.193,0.76 -1.779,19.126 -0.543,28.841c2.713,21.321 -1.325,21.939 1.488,55.396c0.388,4.62 -0.28,29.373 -2.945,40.119c-5.705,23.006 -0.35,24.88 -9.68,37.794c-4.374,6.054 -4.597,5.798 -8.233,12.34c-0.542,0.975 -0.76,0.809 -8.469,11.076c-4.824,6.425 -11.44,7.728 -13.863,10.649c-11.286,13.607 -14.314,6.305 -14.136,5.115c0.205,-1.372 0.356,-2.381 8.137,-15.307c3.923,-6.518 8.941,-7.179 12.792,-20.765c1.944,-6.86 3.802,-6.131 7.401,-20.471c1.188,-4.731 2.973,-4.125 3.77,-10.3c0.141,-1.092 1.949,-4.37 2.054,-6.144c0.523,-8.8 -0.573,-8.834 0.977,-17.471c1.088,-6.062 -1.49,-6.798 -1.072,-29.701c0.158,-8.615 -1.879,-15.214 -0.696,-29.789c1.163,-14.316 -2.947,-20.055 -0.58,-37.94c0.498,-3.767 -2.37,-13.881 -0.621,-26.77c1.487,-10.958 -3.816,-31.212 1.781,-49.109c1.605,-5.133 1.71,-5.047 2.006,-10.335c0.057,-1.011 0.858,-0.849 2.402,-12.425c0.678,-5.086 0.287,-13.259 5.276,-27.731c4.276,-12.402 3.82,-12.46 7.377,-25.079Z" style="fill:#011c22;"/><path d="M733.479,0l70.833,0c-6.117,11.066 -9.974,7.674 -14.943,15.204c-6.093,9.234 -8.577,6.749 -16.006,14.937c-2.275,2.508 -3.828,2.244 -4.928,3.279c-8.552,8.045 -8.577,7.882 -18.29,14.65c-8.134,5.669 -7.503,8.596 -11.953,12.533c-17.559,15.535 -14.11,18.885 -23.546,25.635c-9.601,6.868 -13.123,16.363 -25.066,28.471c-21.776,22.075 -37.941,47.44 -47.704,52.692c-25.486,13.709 -22.282,20.908 -38.731,22.376c-9.887,0.882 10.821,-15.177 10.875,-15.222c27.976,-22.843 30.34,-37.378 31.532,-40.463c4.577,-11.843 16.959,-22.527 21.038,-35.075c3.962,-12.186 7.551,-10.166 13.199,-21.667c13.392,-27.273 21.73,-34.363 36.834,-52.571c6.402,-7.717 4.858,-8.821 11.616,-16.154c5.745,-6.233 5.078,-6.681 5.24,-8.625Z" style="fill:#011c22;"/><path d="M625.69,0l32.85,0c-7.557,12.103 -27.026,49.088 -27.963,51.748c-2.426,6.888 -2.904,6.657 -2.864,7.282c0.54,8.533 34.171,-43.835 37.348,-47.977c4.621,-6.026 7.452,-3.843 9.904,-11.053l32.85,0c-4.69,6.788 -5.93,5.606 -10.905,12.092c-12.737,16.605 -17.264,13.946 -23.499,23.639c-5.23,8.13 -5.126,8.125 -11.333,15.46c-9.335,11.031 -8.866,17.421 -22.26,30.175c-9.337,8.891 -6.477,10.752 -12.811,21.972c-24.302,43.045 -23.679,43.398 -26.285,46.812c-20.07,26.298 -19.443,26.734 -21.4,28.837c-1.882,2.022 -11.237,12.933 -9.413,-1.963c2.361,-19.275 4.547,-18.754 4.724,-20.421c2.047,-19.286 5.635,-18.57 7.353,-33.907c1.154,-10.303 10.767,-27.957 12.078,-35.914c3.086,-18.731 10.414,-28.298 12.147,-35.961c1.807,-7.995 2.773,-7.619 4.824,-15.476c2.762,-10.578 5.648,-14.005 14.655,-35.345Z" style="fill:#011c22;"/><path d="M860.773,0l65.7,0c-9.752,10.451 -28.38,21.138 -31.048,22.668c-13.024,7.472 -12.062,8.818 -13.252,9.332c-3.481,1.501 -3.818,0.766 -15.498,9.21c-16.128,11.659 -17.64,9.484 -25.357,16.843c-10.793,10.294 -14.776,8.745 -22.35,16.629c-5.456,5.68 -6.153,4.641 -12.504,9.131c-14.662,10.366 -35.231,21.351 -43.175,24.579c-7.38,2.999 -11.778,6.926 -13.542,7.827c-7.535,3.848 -7.372,4.125 -8.034,4.443c-11.099,5.338 -12.226,5.65 -13.353,5.963c-4.701,-0.024 -4.868,1.042 -9.151,-1.013c-4.27,-7.54 13.785,-18.246 17.925,-23.822c6.721,-9.053 22.817,-20.173 29.767,-27.813c16.294,-17.912 33.897,-27.221 37.147,-30.591c17.949,-18.616 27.155,-19.485 42.52,-33.423c4.012,-3.64 12.994,-3.392 14.204,-9.962Z" style="fill:#011c22;"/><path d="M876.171,699.088l-25.664,0c-5.246,-30.659 -14.673,-35.713 -27.081,-62.961c-4.31,-9.466 -7.714,-7.074 -18.888,-20.885c-15.213,-18.802 -25.46,-23.675 -33.517,-35.395c-0.556,-0.809 -0.83,-0.538 -8.952,-8.402c-2.469,-2.391 -8.861,-3.759 -19.447,-12.36c-10.429,-8.474 -14.109,-8.946 -39.838,-23.907c-7.479,-4.349 -31.55,-0.405 -21.115,-11.584c5.996,-6.424 6.885,-5.354 13.203,-11.427c3.737,-3.592 10.342,2.313 29.41,7.627c4.696,1.308 30.145,10.875 62.485,39.271c6.877,6.039 7.883,4.866 13.541,12.133c3.016,3.873 5.067,1.995 10.848,10.576c11.411,16.935 13.61,15.356 38.956,55.452c8.718,13.792 5.671,15.2 8.924,20.085c15.843,23.786 14.482,24.546 15.027,27.928c0.067,0.414 0.246,0.356 1.439,5.035c1.013,3.969 0.583,3.978 0.669,8.815Z" style="fill:#021a21;"/><path d="M939.818,699.088l-24.638,0c-0.231,-4.153 -3.242,-21.423 -6.937,-30.374c-4.632,-11.219 -6.323,-33.096 -33.516,-73.537c-5.563,-8.274 -4.833,-8.672 -10.974,-16.631c-2.514,-3.258 -3.515,-9.759 -29.128,-38.691c-17.22,-19.451 -19.671,-16.575 -24.924,-21.233c-11.154,-9.89 -10.246,-10.856 -22.169,-19.776c-5.372,-4.019 -5.331,-4.272 -11.97,-5.553c-9.583,-1.849 -8.677,-8.867 -25.638,-9.448c-7.989,-0.274 8.977,-11.75 10.038,-12.467c14.364,-9.715 18.365,-17.329 23.689,-11.852c8.459,8.701 8.176,9.035 18.394,15.558c8.053,5.141 5.127,8.469 13.479,13.19c3.461,1.956 2.146,3.44 8.019,7.434c2.191,1.49 21.914,23.927 25.63,32.6c4.286,10.001 5.167,9.419 12.546,17.379c21.786,23.503 24.479,29.687 25.811,32.745c3.856,8.853 3.499,8.942 8.599,17.216c15.803,25.636 15.883,25.602 16.668,28.095c5.932,18.851 15.359,28.364 19.313,44.921c2.272,9.515 6.92,8.353 7.479,25.816c0.076,2.384 0.162,2.301 0.23,4.606Z" style="fill:#26676d;"/><path d="M557.937,0l39.009,0c-1.856,8.72 -4.895,23.468 -8.35,29.178c-11.997,19.824 -5.313,25.137 -12.115,44.248c-7.526,21.146 -5.764,21.67 -6.638,23.409c-2.263,4.501 -1.78,4.577 -2.035,9.378c-0.119,2.239 -4.864,11.845 -5.333,16.512c-1.112,11.089 -7.453,15.617 -5.25,29.668c0.674,4.297 -3.059,7.255 -3.768,10.239c-1.364,5.743 3.954,6.849 -7.891,38.041c-4.135,10.889 -22.392,35.42 -22.872,27.804c-0.798,-12.666 5.8,-11.066 7.709,-23.653c2.474,-16.311 3.373,-16.074 3.419,-17.5c0.778,-24.158 3.227,-23.946 3.022,-48.186c-0.055,-6.544 1.848,-16.315 1.87,-19.532c0.046,-6.798 2.992,-9.76 2.645,-13.342c-1.331,-13.731 2.525,-27.756 2.85,-31.862c0.617,-7.793 1.721,-7.495 1.764,-8.162c0.687,-10.594 2.034,-10.347 2.073,-11.262c0.103,-2.416 0.748,-17.563 4.388,-29.912c3.663,-12.43 1.468,-12.864 5.502,-25.066Z" style="fill:#021d23;"/><path d="M801.232,699.088l-31.823,0c-0.152,-0.523 0.345,-1.099 0.193,-1.622c-4.048,-13.945 -19.743,-22.715 -24.116,-30.543c-0.565,-1.011 -12.2,-18.882 -18.273,-21.507c-13.162,-5.688 -11.637,-8.237 -24.375,-14.88c-6.696,-3.493 -6.402,-8.019 -36.247,-21.968c-7.835,-3.662 -8.055,-2.924 -22.3,-9.845c-11.494,-5.584 -12.369,-3.16 -23.931,-8.487c-8.371,-3.856 -29.104,0.176 -25.071,-5.286c2.523,-3.418 8.21,-1.777 17.324,-9.179c4.416,-3.587 4.396,2.152 13.006,3.209c10.153,1.246 10.298,0.527 26.679,5.932c18.262,6.025 18.832,4.294 22.006,6.402c11.042,7.331 15.501,2.203 38.98,18.515c15.732,10.929 15.981,10.437 30.818,22.649c14.815,12.194 18.131,8.237 30.015,23.316c15.645,19.851 18.845,17.999 25.543,37.484c0.448,1.304 0.541,1.199 1.264,2.394c0.753,1.244 0.396,1.275 0.309,3.417Z" style="fill:#26676d;"/><path d="M195.56,0l71.859,0c-2.891,4.73 -7.1,4.765 -14.392,6.591c-7.678,1.922 -7.594,2.206 -10.245,2.223c-6.825,0.045 -6.822,-0.228 -13.419,1.643c-2.286,0.648 -27.463,7.787 -28.655,7.804c-9.462,0.138 -9.372,0.403 -15.551,2.292c-46.265,14.143 -50.776,9.817 -58.128,13.283c-5.063,2.387 -5.32,1.196 -9.545,2.388c-37.694,10.633 -38.499,8 -53.444,15.346c-18.138,8.916 -18.823,7.021 -27.634,10.42c-17.625,6.798 -26.388,12.613 -36.407,11.409l0,-18.478c15.819,0.853 20.054,-9.806 32.431,-12.932c8.222,-2.077 8.022,-2.4 15.396,-6.397c2.417,-1.311 2.691,-0.488 32.847,-10.126c6.462,-2.065 11.937,-2.704 20.314,-5.755c11.958,-4.355 12.085,-4.004 24.765,-4.066c8.936,-0.044 15.839,-5.736 27.737,-6.578c4.474,-0.317 4.746,-2.265 12.278,-2.867c5.244,-0.419 5.004,-1.918 22.579,-2.991c4.286,-0.262 4.966,0.444 7.213,-3.21Z" style="fill:#256168;"/><path d="M193.507,699.088l-48.248,0c1.069,-4.054 0.87,-4.048 2.657,-7.886c0.234,-0.502 1.46,-3.136 3.166,-6.157c19.08,-33.784 19.066,-33.818 28.245,-43.79c12.42,-13.493 14.34,-26.223 35.773,-24.055c13.153,1.331 17.42,-3.18 32.644,1.793c11.262,3.679 4.011,8.52 -0.058,11.478c-5.976,4.345 -5.178,5.155 -10.938,9.752c-2.424,1.935 -16.698,19.211 -18.247,21.615c-5.839,9.061 -7.747,7.608 -13.069,16.995c-7.327,12.924 -10.058,11.83 -11.925,20.254Z" style="fill:#021e26;"/><path d="M0,548.698l0,-97.523c4.034,0.826 3.868,1.417 5.343,5.273c4.424,11.565 2.04,12.314 7.383,23.526c0.798,1.674 3.304,23.026 10.943,8.957c6.061,-11.164 6.297,-16.705 6.363,-18.25c0.876,-20.604 -1.227,-20.573 0.601,-41.04c1.148,-12.853 -8.522,-38.829 -9.728,-42.066c-0.363,-0.975 0.044,-1.08 -3.724,-12.46c-2.296,-6.936 -0.859,-7.459 -4.987,-13.505c-4.581,-6.71 -1.421,-10.502 -12.195,-18.223l0,-30.797c0.93,0.2 6.834,1.468 10.663,5.26c16.094,15.942 11.503,19.368 14.98,27.359c2.426,5.576 1.357,5.882 3.589,11.534c7.986,20.214 6.913,31.363 9.11,38.024c4.203,12.743 3.355,32.612 3.958,42.062c0.312,4.892 -0.104,28.968 -0.323,29.819c-3.118,12.149 -2.899,12.105 -4.476,24.569c-0.513,4.054 -10.772,25.144 -11.58,26.544c-14.687,25.45 -23.02,29.521 -25.921,30.938Z" style="fill:#236167;"/><path d="M42.602,0l152.958,0c-2.247,3.654 -2.927,2.948 -7.213,3.21c-17.575,1.073 -17.335,2.572 -22.579,2.991c-7.532,0.601 -7.804,2.55 -12.278,2.867c-11.899,0.842 -18.801,6.534 -27.737,6.578c-12.68,0.062 -12.807,-0.289 -24.765,4.066c-8.377,3.051 -13.853,3.69 -20.314,5.755c-30.157,9.638 -30.43,8.815 -32.847,10.126c-7.374,3.998 -7.173,4.321 -15.396,6.397c-12.377,3.126 -16.613,13.785 -32.431,12.932l0,-35.93c15.955,-3.143 15.572,-4.341 22.14,-9.147c4.946,-3.62 16.052,-5.511 20.463,-9.844Z" style="fill:#011d24;"/><path d="M123.701,699.088l-33.877,0c0.938,-4.263 1.279,-5.033 1.461,-5.445c6.21,-14.03 4.934,-20.627 12.391,-32.731c6.37,-10.339 14.01,-36.193 20.469,-50.386c1.481,-3.254 10.21,-1.327 11.84,-1.56c9.447,-1.351 16.587,1.559 27.778,4.304c11.874,2.912 4.535,8.396 1.259,11.646c-0.541,0.537 -11.883,15.027 -13.126,17.451c-8.334,16.259 -10.349,15.226 -16.269,32.462c-4.485,13.058 -10.613,10.588 -11.927,24.259Z" style="fill:#032128;"/><path d="M86.165,387.476c1.173,5.151 2.108,5.234 0.174,10.157c-2.353,5.989 2.153,6.733 0.187,18.597c-1.547,9.331 -1.536,26.067 -1.633,26.768c-0.268,1.931 -12.247,40.752 -18.037,46.851c-0.338,0.356 -7.263,7.651 -6.125,0.293c1.36,-8.792 2.767,-8.447 3.515,-17.402c0.78,-9.346 2.161,-9.112 2.756,-18.506c0.555,-8.763 -0.432,-8.702 -0.158,-17.46c0.354,-11.302 1.087,-11.237 0.311,-22.551c-0.646,-9.422 3.422,-22.953 -2.176,-42.028c-1.256,-4.28 -4.238,-27.075 -16.97,-55.624c-0.418,-0.937 -9.158,-11.476 -0.277,-10.107c17.604,2.714 21.367,-1.517 24.107,8.052c2.711,9.471 5.785,10.66 6.093,17.55c0.595,13.315 4.508,12.489 5.978,25.666c0.703,6.301 2.081,6.068 2.071,12.347c-0.015,8.78 -0.032,8.669 0.186,17.398Z" style="fill:#24656b;"/><path d="M-0,614.398l0,-15.398c6.851,-0.808 6.767,-0.95 12.931,-3.931c3.954,-1.913 13.18,-5.083 16.392,-6.155c21.674,-7.238 23.289,-5.566 26.569,-6.575c24.036,-7.394 28.19,-4.196 41.121,-4.245c21.737,-0.083 21.712,0.378 23.593,0.223c14.487,-1.201 25.607,5.529 32.911,5.911c4.009,0.21 7.221,3.142 10.235,3.202c1.465,0.029 8.919,0.175 17.581,5.157c7.489,4.307 8.803,2.692 13.41,9.356c6.932,10.027 -4.334,3.512 -20.792,0.378c-1.387,-0.264 -13.226,-2.519 -17.42,-2.851c-15.659,-1.242 -24.785,-3.757 -32.847,-2.682c-9.222,1.229 -9.103,-0.755 -18.455,-1.171c-0.725,-0.032 -19.736,1.668 -20.467,1.803c-21.519,3.97 -22.041,0.21 -43.123,5.899c-1.723,0.465 -19.082,5.15 -21.382,6.354c-8.05,4.215 -13.093,3.504 -20.257,4.726Z" style="fill:#021821;"/><path d="M0,451.174l0,-107.789c10.774,7.722 7.614,11.514 12.195,18.223c4.128,6.046 2.691,6.569 4.987,13.505c3.768,11.381 3.361,11.485 3.724,12.46c1.205,3.237 10.876,29.213 9.728,42.066c-1.828,20.466 0.274,20.436 -0.601,41.04c-0.066,1.545 -0.301,7.087 -6.363,18.25c-7.639,14.07 -10.146,-7.283 -10.943,-8.957c-5.343,-11.213 -2.959,-11.961 -7.383,-23.526c-1.475,-3.856 -1.309,-4.447 -5.343,-5.273Z" style="fill:#021c25;"/><path d="M49.788,699.088l-25.664,0c-0.779,-10.72 -4.402,-38.915 -4.505,-41.554c-0.302,-7.703 -1.621,-7.807 -1.377,-23.626c0.136,-8.831 -3.881,-11.459 4.04,-14.95c10.107,-4.455 10.825,-1.679 26.443,-6.716c3.384,-1.091 12.432,-0.788 12.48,4.204c0.186,19.409 -0.725,19.308 -1.585,22.461c-2.933,10.747 -1.028,22.599 -6.881,41.141c-0.464,1.47 -0.033,1.539 -2.95,19.04Z" style="fill:#021e27;"/><path d="M563.07,699.088l-74.939,0c-5.817,-13.032 -25.816,-21.504 -33.135,-26.821c-2.355,-1.711 -3.236,0.143 -10.778,-4.824c-6.302,-4.15 -6.706,-3.127 -13.593,-3.587c-4.384,-0.293 -4.034,-3.525 0.137,-4.902c6.988,-2.305 47.64,-3.288 58.31,-0.179c0.881,0.257 1.071,-0.856 11.287,2.068c4.298,1.23 9.535,-0.664 26.001,11.74c7.993,6.021 10.491,2.418 16.397,9.385c1.846,2.178 15.932,6.203 20.312,17.119Z" style="fill:#021c23;"/><path d="M1051.199,169.896l0,39.009c-7.651,-0.656 -5.649,-7.751 -13.236,-13.928c-8.272,-6.735 -7.169,-7.902 -15.751,-14.153c-1.735,-1.263 -1.105,-1.896 -19.6,-18.315c-7.496,-6.655 -8.248,-5.436 -16.836,-10.722c-7.84,-4.827 -8.267,-3.88 -16.277,-8.429c-6.306,-3.581 -14.616,-1.947 -11.553,-6.536c3.931,-5.889 3.645,-6.003 8.112,-11.418c2.286,-2.771 3.009,-8.694 8.71,-6.994c10.628,3.168 64.454,36.389 70.292,45.616c2.467,3.899 2.44,4.009 6.138,5.87Z" style="fill:#021c25;"/><path d="M77.505,699.088l-16.425,0c2.177,-13.658 2.5,-13.508 3.715,-27.256c0.151,-1.703 3.43,-8.123 3.764,-18.406c0.197,-6.053 3.353,-12.191 3.387,-28.763c0.02,-9.486 -1.557,-15.642 10.7,-16.011c0.582,-0.018 25.746,-7.113 26.625,3.698c0.517,6.354 -2.805,5.649 -9.531,31.712c-0.625,2.42 -2.341,1.701 -12.211,28.76c-4.1,11.241 -7.824,12.976 -10.025,26.265Z" style="fill:#021c25;"/><path d="M994.226,699.088l-20.531,0c0.888,-12.016 -2.533,-11.254 -7.971,-25.229c-1.289,-3.313 -4.546,-4.9 -5.034,-7.197c-0.025,-0.118 0.176,-14.035 -15.131,-44.829c-7.061,-14.206 -10.931,-11.788 -21.982,-34.224c-1.659,-3.367 -17.847,-23.937 -10.441,-23.637c3.738,0.151 13.144,18.04 26.394,30.21c9.219,8.468 6.855,10.331 12.814,16.95c7.095,7.881 7.479,7.682 11.598,17.419c0.83,1.962 5.034,7.13 8.143,11.166c7.766,10.081 2.841,12.346 9.313,23.239c9.657,16.253 12.721,35.637 12.829,36.133Z" style="fill:#306c73;"/><path d="M336.199,699.088l-29.77,0c0.279,-3.31 0.443,-3.344 4.331,-7.488c7.561,-8.057 6.431,-8.896 13.562,-17.281c18.272,-21.488 17.411,-22.18 19.253,-23.794c1.074,-0.94 3.339,-2.924 17.024,5.34c11.768,7.106 14.603,3.825 15.761,6.712c1.483,3.698 -5.035,6.962 -5.777,7.714c-7.793,7.91 -8.361,7.111 -17.609,13.37c-4.972,3.365 -3.442,5.042 -13.352,12.263c-1.918,1.397 -1.827,1.422 -3.423,3.163Z" style="fill:#021e24;"/><path d="M400.873,699.088l-41.062,0c2.454,-5.954 4.661,-3.935 15.19,-13.08c1.738,-1.509 9.482,-8.236 24.007,-15.854c7.151,-3.751 6.89,4.61 18.292,4.191c0.692,-0.025 1.359,-0.05 8.291,2.501c6.917,2.546 -4.968,6.809 -19.676,17.498c-2.907,2.113 -3.433,1.59 -5.042,4.743Z" style="fill:#032028;"/><path d="M1014.757,0l36.442,0c1.3,1.536 0,1.858 0,25.151l-0,23.611c-14.612,-8.643 -13.972,-15.645 -24.563,-26.202c-1.445,-1.44 -8.302,-8.274 -11.878,-22.56Z" style="fill:#3c727a;"/><path d="M1051.199,659.566l0,34.903c-16.299,-20.765 -20.388,-18.405 -22.771,-29.839c-1.325,-6.356 -25.037,-32.807 -1.596,-18.021c11.304,7.13 12.503,10.588 24.367,12.957Z" style="fill:#487d83;"/><path d="M9.752,699.088l-9.752,0c-1.054,-1.958 0,-4.448 0,-6.672l0,-68.78c0.869,0.015 7.503,0.128 7.092,8.232c-0.623,12.262 1.198,14.588 1.325,24.617c0.5,39.266 1.852,39.232 1.335,42.603Z" style="fill:#022229;"/><path d="M658.54,0l16.425,0c-2.452,7.21 -5.283,5.028 -9.904,11.053c-3.176,4.142 -36.807,56.51 -37.348,47.977c-0.04,-0.625 0.438,-0.395 2.864,-7.282c0.937,-2.661 20.406,-39.645 27.963,-51.748Z" style="fill:#2b666c;"/><path d="M1051.199,123.701l0,29.77c-7.252,-1.08 -6.465,-2.864 -23.751,-16.859c-11.456,-9.275 -8.623,-11.473 -7.599,-11.959c2.094,-0.993 21.342,0.426 31.349,-0.953Z" style="fill:#011c22;"/><path d="M42.602,0c-4.411,4.333 -15.516,6.224 -20.463,9.844c-6.567,4.806 -6.185,6.004 -22.14,9.147l0,-18.991c1.074,-1.074 1.377,0 18.991,0l23.611,0Z" style="fill:#306468;"/><path d="M1051.199,539.459l0,94.444c-0.247,-0.496 -0.973,-0.634 -1.22,-1.13c-2.527,-5.075 -2.225,-18.286 -3.915,-25.632c-0.201,-0.874 0.554,-0.931 -0.83,-11.178c-2.27,-16.816 0.933,-32.169 1.504,-34.905c0.357,-1.711 0.517,-3.458 0.8,-5.184c0.299,-1.82 2.119,-5.557 2.14,-6.147c0.191,-5.605 -1.288,-6.31 1.521,-10.267Z" style="fill:#366b72;"/><path d="M458.36,699.088l-35.93,0c4.219,-7.653 7.719,-3.821 16.581,-12.675c4.044,-4.04 16.734,6.056 19.349,12.675Z" style="fill:#031f25;"/><path d="M1048.375,300.363c1.411,6.982 1.603,6.954 1.406,8.132c-0.522,3.127 -1.665,2.793 -2.075,7.185c-2.014,-1.985 -4.405,-3.722 -4.745,-4.425c-4.195,-8.681 2.389,-8.873 5.414,-10.892Z" style="fill:#457e86;"/><path d="M719.209,125.612c4.283,2.055 4.45,0.989 9.151,1.013c-1.541,12.817 -10.935,2.53 -10.108,0.155c0.166,-0.476 0.792,-0.693 0.957,-1.168Z" style="fill:#417b84;"/></g></svg>