<?xml version="1.0" encoding="UTF-8" standalone="no"?>
<!DOCTYPE svg PUBLIC "-//W3C//DTD SVG 1.1//EN" "http://www.w3.org/Graphics/SVG/1.1/DTD/svg11.dtd">
<svg fill="#ffffff" width="100%" height="100%" viewBox="239.32 357.84 3177.82 238.32" version="1.1" xmlns="http://www.w3.org/2000/svg" xmlns:xlink="http://www.w3.org/1999/xlink" xml:space="preserve" xmlns:serif="http://www.serif.com/" style="fill-rule:evenodd;clip-rule:evenodd;stroke-linejoin:round;stroke-miterlimit:2;">
    <g id="wordmark-2026">
        <g>
            <path d="M456.09,512.72l-62.2,-154.88l-60.97,154.88l-51.42,-144.1l-42.18,0l88.06,226.93l66.51,-152.41l66.51,152.41l88.37,-226.93l-42.49,0l-50.19,144.1Z"/>
            <path d="M619.59,476.38c0,64.35 47.11,112.39 111.77,112.39c64.97,0 112.08,-48.03 112.08,-112.39c0,-64.35 -47.73,-111.77 -112.08,-111.77c-63.74,0 -111.77,47.42 -111.77,111.77Zm38.49,0c0,-44.34 30.48,-76.67 73.28,-76.67c43.42,0 73.28,32.33 73.28,76.67c0,44.34 -30.18,76.67 -73.28,76.67c-42.8,0 -73.28,-32.33 -73.28,-76.67Z"/>
            <path d="M1013.71,520.11l-63.43,-151.49l-41.88,0l105.3,227.54l105.61,-227.54l-42.18,0l-63.43,151.49Z"/>
            <path d="M1205.54,368.62l0,215.54l131.17,0l0,-32.02l-95.45,0l0,-67.74l89.29,0l0,-31.41l-89.29,0l0,-52.34l95.45,0l0,-32.02l-131.17,0Z"/>
            <path d="M1600.27,368.62l0,144.72l-157.34,-155.49l0,226.31l35.72,0l0,-144.72l157.34,155.49l0,-226.31l-35.72,0Z"/>
        </g>
        <g>
            <path d="M2204.91,513.29l-62.2,-154.88l-60.97,154.88l-51.42,-144.1l-42.18,0l88.06,226.93l66.51,-152.41l66.51,152.41l88.37,-226.93l-42.49,0l-50.19,144.1Z"/>
            <path d="M2368.41,476.95c0,64.35 47.11,112.39 111.77,112.39c64.97,0 112.08,-48.03 112.08,-112.39c0,-64.35 -47.73,-111.77 -112.08,-111.77c-63.74,0 -111.77,47.42 -111.77,111.77Zm38.49,0c0,-44.34 30.48,-76.67 73.28,-76.67c43.42,0 73.28,32.33 73.28,76.67c0,44.34 -30.18,76.67 -73.28,76.67c-42.8,0 -73.28,-32.33 -73.28,-76.67Z"/>
            <path d="M2677.24,476.95c0,64.35 47.11,112.39 111.77,112.39c64.97,0 112.08,-48.03 112.08,-112.39c0,-64.35 -47.73,-111.77 -112.08,-111.77c-63.74,0 -111.77,47.42 -111.77,111.77Zm38.49,0c0,-44.34 30.48,-76.67 73.28,-76.67c43.42,0 73.28,32.33 73.28,76.67c0,44.34 -30.18,76.67 -73.28,76.67c-42.8,0 -73.28,-32.33 -73.28,-76.67Z"/>
            <path d="M3067.98,584.72c65.89,0 110.85,-42.8 110.85,-107.77c0,-65.28 -44.95,-107.77 -110.85,-107.77l-69.59,0l0,215.54l69.59,0Zm-0.92,-181.36c42.49,0 74.51,24.94 74.51,73.59c0,48.65 -32.02,73.59 -74.51,73.59l-31.41,0l0,-147.18l31.41,0Z"/>
            <path d="M3289.98,515.13l-27.1,19.09c14.16,29.56 44.65,55.12 82.52,55.12c36.64,0 71.74,-24.02 71.74,-64.35c0,-37.56 -28.94,-55.73 -54.81,-64.66c-34.79,-12.01 -48.96,-22.79 -48.96,-39.41c0,-12.32 9.24,-23.09 29.25,-23.09c21.86,0 34.79,14.16 43.72,30.18l29.25,-16.63c-11.08,-22.48 -34.18,-46.19 -72.36,-46.19c-38.8,0 -67.74,23.71 -67.74,58.19c0,40.03 36.03,55.42 57.27,63.12c27.4,10.16 45.88,17.55 45.88,41.26c0,17.24 -13.24,28.94 -33.25,28.94c-24.32,0 -41.57,-16.32 -55.42,-41.57Z"/>
        </g>
        <path d="M1842.32,531.11l19.55,0l-18.17,-20.48c6.47,-6.62 12.16,-14.16 17.4,-21.4l-12.01,-8.31c-4.62,6.77 -9.7,13.24 -15.09,18.78l-23.25,-26.02c13.39,-8.78 20.94,-16.47 20.94,-27.56c0,-12.93 -10.16,-24.94 -27.87,-24.94c-17.55,0 -29.1,10.93 -29.1,25.09c0,10.47 8.01,18.17 14.01,24.63c-11.7,5.39 -26.48,13.55 -26.48,31.71c0,18.78 16.93,30.18 35.87,30.18c13.39,0 24.79,-4.93 34.64,-12.47l9.55,10.78Zm-50.8,-84.21c0,-6.77 4.31,-11.7 12.16,-11.7c7.54,0 12.16,5.23 12.16,11.85c0,5.54 -5.08,11.55 -13.7,17.09c-5.85,-6.31 -10.62,-11.55 -10.62,-17.24Zm-11.55,54.5c0,-10.47 8.78,-15.7 17.86,-20.32l25.25,28.33c-7.39,5.39 -15.09,8.78 -23.25,8.78c-11.55,0 -19.86,-6.93 -19.86,-16.78Z"/>
    </g>
</svg>
