<?xml version="1.0" encoding="UTF-8" standalone="no"?>
<!DOCTYPE svg PUBLIC "-//W3C//DTD SVG 1.1//EN" "http://www.w3.org/Graphics/SVG/1.1/DTD/svg11.dtd">
<svg width="100%" height="100%" viewBox="0.18 2.55 5229.74 472.44" version="1.1" xmlns="http://www.w3.org/2000/svg" xmlns:xlink="http://www.w3.org/1999/xlink" xml:space="preserve" xmlns:serif="http://www.serif.com/" style="fill-rule:evenodd;clip-rule:evenodd;stroke-linecap:round;stroke-linejoin:round;stroke-miterlimit:1.5;">
    <g id="horizontal-logo" transform="matrix(2.044307,0,0,0.301655,0,0)">
        <g id="workmark-2026" transform="matrix(0.698675,0,0,1.976596,237.992974,-67.851198)">
            <g transform="matrix(2.655099,0,0,6.360247,-10577.349678,-18252.991317)">
                <path d="M4104.08,2947.77L4087.679,2906.929L4071.603,2947.77L4058.044,2909.771L4046.92,2909.771L4070.142,2969.61L4087.679,2929.42L4105.217,2969.61L4128.519,2909.771L4117.315,2909.771L4104.08,2947.77Z"/>
                <path d="M4147.194,2938.189C4147.194,2955.158 4159.616,2967.824 4176.667,2967.824C4193.799,2967.824 4206.221,2955.158 4206.221,2938.189C4206.221,2921.219 4193.636,2908.716 4176.667,2908.716C4159.86,2908.716 4147.194,2921.219 4147.194,2938.189ZM4157.343,2938.189C4157.343,2926.497 4165.381,2917.972 4176.667,2917.972C4188.115,2917.972 4195.991,2926.497 4195.991,2938.189C4195.991,2949.881 4188.034,2958.406 4176.667,2958.406C4165.381,2958.406 4157.343,2949.881 4157.343,2938.189Z"/>
                <path d="M4251.121,2949.718L4234.395,2909.771L4223.353,2909.771L4251.121,2969.773L4278.97,2909.771L4267.847,2909.771L4251.121,2949.718Z"/>
                <path d="M4301.704,2909.771L4301.704,2966.606L4336.292,2966.606L4336.292,2958.162L4311.123,2958.162L4311.123,2940.3L4334.669,2940.3L4334.669,2932.018L4311.123,2932.018L4311.123,2918.215L4336.292,2918.215L4336.292,2909.771L4301.704,2909.771Z"/>
                <path d="M4405.794,2909.771L4405.794,2947.932L4364.304,2906.929L4364.304,2966.606L4373.722,2966.606L4373.722,2928.446L4415.212,2969.448L4415.212,2909.771L4405.794,2909.771Z"/>
            </g>
            <g transform="matrix(2.655099,0,0,6.360247,-9352.945249,-18252.03728)">
                <path d="M4104.08,2947.77L4087.679,2906.929L4071.603,2947.77L4058.044,2909.771L4046.92,2909.771L4070.142,2969.61L4087.679,2929.42L4105.217,2969.61L4128.519,2909.771L4117.315,2909.771L4104.08,2947.77Z"/>
                <path d="M4147.194,2938.189C4147.194,2955.158 4159.616,2967.824 4176.667,2967.824C4193.799,2967.824 4206.221,2955.158 4206.221,2938.189C4206.221,2921.219 4193.636,2908.716 4176.667,2908.716C4159.86,2908.716 4147.194,2921.219 4147.194,2938.189ZM4157.343,2938.189C4157.343,2926.497 4165.381,2917.972 4176.667,2917.972C4188.115,2917.972 4195.991,2926.497 4195.991,2938.189C4195.991,2949.881 4188.034,2958.406 4176.667,2958.406C4165.381,2958.406 4157.343,2949.881 4157.343,2938.189Z"/>
                <path d="M4228.63,2938.189C4228.63,2955.158 4241.053,2967.824 4258.104,2967.824C4275.235,2967.824 4287.658,2955.158 4287.658,2938.189C4287.658,2921.219 4275.073,2908.716 4258.104,2908.716C4241.297,2908.716 4228.63,2921.219 4228.63,2938.189ZM4238.78,2938.189C4238.78,2926.497 4246.818,2917.972 4258.104,2917.972C4269.552,2917.972 4277.427,2926.497 4277.427,2938.189C4277.427,2949.881 4269.471,2958.406 4258.104,2958.406C4246.818,2958.406 4238.78,2949.881 4238.78,2938.189Z"/>
                <path d="M4331.664,2966.606C4349.04,2966.606 4360.894,2955.321 4360.894,2938.189C4360.894,2920.976 4349.04,2909.771 4331.664,2909.771L4313.315,2909.771L4313.315,2966.606L4331.664,2966.606ZM4331.421,2918.784C4342.625,2918.784 4351.07,2925.36 4351.07,2938.189C4351.07,2951.017 4342.625,2957.594 4331.421,2957.594L4323.139,2957.594L4323.139,2918.784L4331.421,2918.784Z"/>
                <path d="M4390.205,2948.257L4383.06,2953.291C4386.794,2961.085 4394.833,2967.824 4404.819,2967.824C4414.481,2967.824 4423.737,2961.491 4423.737,2950.855C4423.737,2940.949 4416.105,2936.159 4409.285,2933.804C4400.11,2930.638 4396.375,2927.796 4396.375,2923.412C4396.375,2920.164 4398.811,2917.322 4404.089,2917.322C4409.853,2917.322 4413.263,2921.057 4415.618,2925.279L4423.331,2920.895C4420.408,2914.968 4414.319,2908.716 4404.251,2908.716C4394.021,2908.716 4386.389,2914.968 4386.389,2924.061C4386.389,2934.616 4395.888,2938.676 4401.49,2940.706C4408.717,2943.385 4413.588,2945.334 4413.588,2951.586C4413.588,2956.132 4410.097,2959.218 4404.819,2959.218C4398.405,2959.218 4393.858,2954.915 4390.205,2948.257Z"/>
            </g>
            <g transform="matrix(2.655099,0,0,6.360247,-9513.678299,-18341.942565)">
                <path d="M4069.005,2966.606L4074.161,2966.606L4069.37,2961.207C4071.075,2959.461 4072.577,2957.472 4073.958,2955.564L4070.791,2953.372C4069.573,2955.158 4068.234,2956.863 4066.813,2958.325L4060.683,2951.464C4064.215,2949.15 4066.204,2947.12 4066.204,2944.197C4066.204,2940.787 4063.524,2937.62 4058.856,2937.62C4054.228,2937.62 4051.183,2940.503 4051.183,2944.238C4051.183,2946.998 4053.294,2949.028 4054.877,2950.733C4051.792,2952.154 4047.895,2954.306 4047.895,2959.096C4047.895,2964.049 4052.36,2967.053 4057.354,2967.053C4060.886,2967.053 4063.89,2965.754 4066.488,2963.765L4069.005,2966.606ZM4055.608,2944.4C4055.608,2942.614 4056.745,2941.315 4058.815,2941.315C4060.804,2941.315 4062.022,2942.695 4062.022,2944.441C4062.022,2945.902 4060.683,2947.485 4058.409,2948.947C4056.867,2947.282 4055.608,2945.902 4055.608,2944.4ZM4052.563,2958.771C4052.563,2956.011 4054.877,2954.63 4057.273,2953.412L4063.93,2960.882C4061.982,2962.303 4059.952,2963.196 4057.8,2963.196C4054.756,2963.196 4052.563,2961.369 4052.563,2958.771Z"/>
            </g>
        </g>
        <g id="icon-2026" transform="matrix(0.489163,0,0,3.315046,0.090352,8.438034)">
            <path d="M302.598,472.441L186.214,139.846L304.311,0.002L422.407,139.717L387.107,237.751L468.81,472.441L302.598,472.441ZM289.006,43.957L205.09,143.327L229.809,213.968L289.006,43.957ZM311.553,447.572L314.424,455.775L445.36,455.775L378.134,262.669L311.553,447.572ZM403.432,143.086L310.443,33.075L238.655,239.248L302.823,422.622L369.426,237.657L403.432,143.086ZM118.097,0L282.596,472.439L116.305,472.439L0,139.715L118.097,0ZM111.964,33.073L18.875,143.203L128.135,455.773L259.145,455.773L111.964,33.073ZM489.56,0.002L607.657,139.717L487.848,472.441L406.252,239.262L489.56,0.002ZM495.692,33.075L423.905,239.248L488.072,422.622L588.715,143.125L495.692,33.075Z"/>
        </g>
        <g transform="matrix(0.140807,0,0,1.769148,1480.94224,-5.529846)">
            <path d="M5129.527,697.139C5070.462,697.139 5018.042,690.867 4972.267,678.322C4926.492,665.778 4890.868,647.46 4865.397,623.367C4839.925,599.274 4827.189,570.302 4827.189,536.453C4827.189,487.47 4850.63,441.574 4897.513,398.765C4944.396,355.955 5006.968,321.707 5085.228,296.021C5163.489,270.335 5247.287,257.492 5336.623,257.492C5395.688,257.492 5447.923,263.764 5493.329,276.309C5538.735,288.853 5574.174,307.271 5599.646,331.563C5625.118,355.855 5637.854,384.926 5637.854,418.776C5637.854,466.962 5614.043,512.459 5566.422,555.269C5518.801,598.079 5455.86,632.426 5377.599,658.311C5299.338,684.196 5216.648,697.139 5129.527,697.139ZM4985.557,546.01C4985.557,594.993 5001.061,631.033 5032.07,654.13C5063.079,677.227 5105.901,688.776 5160.536,688.776C5221.816,688.776 5277.004,674.838 5326.102,646.962C5375.2,619.086 5413.223,583.544 5440.171,540.336C5467.119,497.128 5480.593,453.621 5480.593,409.815C5480.593,361.231 5465.458,325.092 5435.187,301.397C5404.917,277.702 5363.202,265.855 5310.044,265.855C5247.287,265.855 5191.176,279.893 5141.709,307.968C5092.242,336.043 5053.85,371.784 5026.533,415.192C4999.215,458.599 4985.557,502.205 4985.557,546.01Z" style="fill:rgb(171,142,102);fill-rule:nonzero;"/>
            <path d="M5640.068,468.953C5678.461,440.678 5712.238,418.676 5741.401,402.946C5770.565,387.216 5799.913,379.351 5829.445,379.351C5847.903,379.351 5863.038,383.034 5874.851,390.402C5886.664,397.769 5892.57,408.82 5892.57,423.554C5892.57,437.891 5886.664,454.816 5874.851,474.329L5798.436,599.174C5792.529,608.732 5789.576,617.294 5789.576,624.86C5789.576,637.205 5798.436,643.378 5816.155,643.378C5835.351,643.378 5857.132,633.422 5881.496,613.51C5905.86,593.599 5940.191,558.156 5984.49,507.183L6089.699,386.519L6223.703,386.519L6114.063,589.617C6105.942,604.749 6101.881,617.094 6101.881,626.652C6101.881,639.395 6109.264,645.767 6124.031,645.767C6133.629,645.767 6143.411,642.979 6153.378,637.404C6163.346,631.829 6178.666,621.873 6199.338,607.537L6209.305,607.537C6170.175,636.21 6136.582,658.311 6108.526,673.842C6080.47,689.373 6052.415,697.139 6024.359,697.139C6005.901,697.139 5990.766,693.157 5978.953,685.192C5967.14,677.227 5961.233,664.882 5961.233,648.156C5961.233,633.422 5967.14,614.705 5978.953,592.006L6055.368,454.616L6045.401,454.616L5994.457,513.156C5939.822,576.077 5892.201,622.471 5851.594,652.338C5810.987,682.205 5770.38,697.139 5729.773,697.139C5706.147,697.139 5687.136,692.758 5672.739,683.997C5658.342,675.236 5651.143,662.493 5651.143,645.767C5651.143,630.634 5657.05,613.311 5668.863,593.798L5743.063,469.55C5749.707,457.603 5753.03,448.643 5753.03,442.669C5753.03,432.315 5746.385,427.138 5733.095,427.138C5722.021,427.138 5710.577,430.424 5698.764,436.995C5686.951,443.565 5670.708,454.218 5650.036,468.953L5640.068,468.953Z" style="fill:rgb(171,142,102);fill-rule:nonzero;"/>
            <path d="M6357.706,393.687L6296.795,393.687L6296.795,386.519L6377.64,386.519C6407.173,378.953 6435.782,368.599 6463.469,355.457C6491.155,342.315 6512.751,327.78 6528.255,311.851L6533.793,311.851L6493.924,386.519L6611.315,386.519L6611.315,393.687L6490.602,393.687L6388.715,585.435C6382.07,598.577 6378.748,609.329 6378.748,617.692C6378.748,627.249 6382.439,634.318 6389.822,638.898C6397.205,643.477 6406.434,645.767 6417.509,645.767C6430.06,645.767 6442.611,642.78 6455.163,636.807C6467.714,630.833 6483.588,621.077 6502.784,607.537L6512.751,607.537C6475.835,634.617 6441.689,656.32 6410.31,672.648C6378.932,688.975 6347,697.139 6314.515,697.139C6292.365,697.139 6274.277,692.559 6260.249,683.4C6246.221,674.241 6239.207,660.303 6239.207,641.586C6239.207,624.86 6245.114,604.948 6256.926,581.851L6357.706,393.687Z" style="fill:rgb(171,142,102);fill-rule:nonzero;"/>
            <path d="M6743.104,277.802L6682.193,267.647L6682.193,264.66L6902.579,228.222L6903.686,228.222L6710.987,589.617C6702.866,604.749 6698.805,617.094 6698.805,626.652C6698.805,639.395 6706.557,645.767 6722.062,645.767C6731.66,645.767 6741.627,642.88 6751.963,637.106C6762.3,631.331 6777.066,621.475 6796.262,607.537L6806.229,607.537C6766.36,636.608 6732.767,658.809 6705.45,674.141C6678.132,689.473 6650.446,697.139 6622.39,697.139C6603.932,697.139 6588.797,693.157 6576.984,685.192C6565.171,677.227 6559.264,665.081 6559.264,648.754C6559.264,633.621 6559.171,614.705 6576.984,592.006L6743.104,277.802Z" style="fill:rgb(171,142,102);fill-rule:nonzero;"/>
            <path d="M6831.701,590.214C6831.701,555.568 6848.867,521.917 6883.198,489.262C6917.529,456.608 6961.828,430.125 7016.094,409.815C7070.36,389.506 7125.917,379.351 7182.767,379.351C7213.038,379.351 7236.11,382.835 7251.984,389.804C7267.858,396.773 7275.794,405.435 7275.794,415.789C7275.794,434.904 7248.661,453.521 7194.396,471.641C7140.13,489.76 7065.007,506.585 6969.027,522.116C6966.073,531.276 6964.597,541.829 6964.597,553.776C6964.597,584.44 6975.487,607.238 6997.267,622.172C7019.047,637.106 7048.764,644.572 7086.418,644.572C7114.474,644.572 7139.761,639.395 7162.279,629.041C7184.798,618.687 7207.501,601.763 7230.388,578.267L7239.248,578.267C7204.547,616.099 7167.632,645.369 7128.501,666.077C7089.371,686.785 7044.703,697.139 6994.498,697.139C6945.77,697.139 6906.455,687.482 6876.553,668.168C6846.652,648.853 6831.701,622.869 6831.701,590.214ZM6970.134,515.546C7034.367,505.192 7083.28,491.154 7116.873,473.433C7150.466,455.712 7167.263,436.895 7167.263,416.984C7167.263,408.223 7163.571,401.751 7156.188,397.57C7148.805,393.388 7138.838,391.298 7126.287,391.298C7104.876,391.298 7083.28,396.973 7061.5,408.322C7039.72,419.672 7020.708,434.904 7004.465,454.019C6988.223,473.134 6976.779,493.643 6970.134,515.546Z" style="fill:rgb(171,142,102);fill-rule:nonzero;"/>
            <path d="M7397.616,393.687L7336.705,393.687L7336.705,386.519L7417.55,386.519C7447.082,378.953 7475.692,368.599 7503.378,355.457C7531.065,342.315 7552.661,327.78 7568.165,311.851L7573.702,311.851L7533.834,386.519L7651.225,386.519L7651.225,393.687L7530.511,393.687L7428.625,585.435C7421.98,598.577 7418.657,609.329 7418.657,617.692C7418.657,627.249 7422.349,634.318 7429.732,638.898C7437.115,643.477 7446.344,645.767 7457.419,645.767C7469.97,645.767 7482.521,642.78 7495.072,636.807C7507.624,630.833 7523.497,621.077 7542.693,607.537L7552.661,607.537C7515.745,634.617 7481.598,656.32 7450.22,672.648C7418.842,688.975 7386.91,697.139 7354.424,697.139C7332.275,697.139 7314.186,692.559 7300.159,683.4C7286.131,674.241 7279.117,660.303 7279.117,641.586C7279.117,624.86 7285.023,604.948 7296.836,581.851L7397.616,393.687Z" style="fill:rgb(171,142,102);fill-rule:nonzero;"/>
        </g>
        <g transform="matrix(0.489163,0,0,3.315046,-169.853393,-785.691048)">
            <path d="M4507.632,239.553L4507.632,711.994" style="fill:none;stroke:rgb(22,31,40);stroke-width:4.17px;"/>
        </g>
    </g>
</svg>
